<svg width="33" height="34" viewBox="0 0 33 34" fill="none" xmlns="http://www.w3.org/2000/svg">
<path d="M26.1457 0.635498H0.450146V8.81773H17.2366C17.7341 8.81773 18.2111 9.01534 18.5629 9.36708C18.9146 9.71882 19.1122 10.1959 19.1122 10.6933V25.1822H15.5345C15.0371 25.1822 14.56 24.9846 14.2083 24.6329C13.8566 24.2811 13.659 23.8041 13.659 23.3066V12.9112H6.56455C4.82352 12.9112 3.15381 13.6028 1.92272 14.8339C0.691625 16.065 -4.52995e-06 17.7347 -4.52995e-06 19.4758V26.7999C-4.52995e-06 28.5409 0.691625 30.2107 1.92272 31.4418C3.15381 32.6729 4.82352 33.3645 6.56455 33.3645H32.7102V7.20005C32.7102 5.45902 32.0186 3.7893 30.7875 2.55821C29.5564 1.32711 27.8867 0.635498 26.1457 0.635498V0.635498Z" fill="#00B451"/>
</svg>
