<svg width="43" height="20" viewBox="0 0 43 20" fill="none" xmlns="http://www.w3.org/2000/svg">
<g clip-path="url(#clip0_1213_1939)">
<path d="M12.7544 5.15552C12.5916 5.30362 12.4274 5.45036 12.2666 5.60118C11.6981 6.13514 11.2711 6.75607 11.1206 7.53053C11.0123 8.03917 11.0159 8.56507 11.1313 9.07219C11.2466 9.57932 11.471 10.0557 11.7891 10.4687C12.1168 10.9096 12.5074 11.2758 13.0274 11.4877C13.0883 11.5122 13.1499 11.5339 13.2245 11.5625C13.156 11.7452 13.0972 11.9252 13.024 12.1005C12.6005 13.1195 12.0497 14.0625 11.2978 14.8804C11.1557 15.0316 11.0022 15.172 10.8387 15.3002C10.2914 15.7418 9.67563 15.9116 8.98119 15.7078C8.63499 15.6073 8.2929 15.4945 7.94808 15.3892C7.5968 15.2713 7.23064 15.2027 6.86024 15.1854C6.39636 15.1745 5.97081 15.3125 5.53977 15.4687C5.21715 15.5951 4.88725 15.7024 4.55182 15.79C4.02295 15.9157 3.54403 15.754 3.10616 15.4592C2.67524 15.1566 2.30416 14.7778 2.01147 14.3417C1.24885 13.2755 0.676097 12.0873 0.318134 10.8288C-0.00309285 9.71202 -0.080304 8.54003 0.091671 7.39126C0.246295 6.36748 0.630803 5.44357 1.35466 4.67998C2.10726 3.88922 3.03432 3.56381 4.11942 3.67115C4.65992 3.72414 5.17579 3.87971 5.69303 4.02917C5.90855 4.09167 6.12885 4.13854 6.3471 4.19357C6.65275 4.26195 6.97139 4.24622 7.26869 4.14805C7.69493 4.02441 8.1157 3.88379 8.53852 3.75946C9.16082 3.56603 9.82136 3.52684 10.4624 3.64533C11.3053 3.80702 11.9717 4.25675 12.5293 4.88718C12.5977 4.96599 12.6662 5.04615 12.7346 5.12631C12.7421 5.13544 12.7487 5.14521 12.7544 5.15552Z" fill="black"/>
<path d="M9.58452 0C9.60256 0.175355 9.61033 0.351603 9.60778 0.527853C9.5498 1.43306 9.16587 2.28736 8.5261 2.93478C8.23396 3.23913 7.91034 3.50611 7.51215 3.66304C7.17006 3.79891 6.81224 3.82473 6.45167 3.85122C6.4462 3.85122 6.44004 3.84511 6.43457 3.84239C6.48588 1.76291 7.54157 0.417799 9.58452 0Z" fill="black"/>
<path d="M17.2556 2.47213C18.3546 2.29473 19.4666 2.2086 20.58 2.21465C22.2905 2.21465 23.5453 2.61003 24.343 3.32131C25.0792 3.95378 25.5171 4.92253 25.5171 6.10663C25.5171 7.3118 25.1586 8.26085 24.4819 8.95242C23.5644 9.92185 22.0722 10.4171 20.3803 10.4171C19.863 10.4171 19.3855 10.3974 18.9873 10.2989V15.6345H17.2556V2.47213ZM18.9873 8.894C19.3649 8.99318 19.8432 9.02987 20.4199 9.02987C22.5094 9.02987 23.7834 8.02239 23.7834 6.18408C23.7834 4.42525 22.5299 3.57607 20.619 3.57607C19.863 3.57607 19.2856 3.63517 18.9873 3.71194V8.894Z" fill="black"/>
<path d="M31.7621 15.6331L31.6253 14.4273H31.5658C31.028 15.1786 29.9922 15.8505 28.6197 15.8505C26.6698 15.8505 25.6743 14.4871 25.6743 13.1032C25.6743 10.7934 27.7446 9.52647 31.4659 9.54617V9.34848C31.4659 8.5584 31.247 7.13516 29.2765 7.13516C28.3809 7.13516 27.4457 7.41234 26.769 7.84712L26.3708 6.70106C27.1672 6.18679 28.3214 5.8512 29.5351 5.8512C32.4812 5.8512 33.1976 7.84712 33.1976 9.76356V13.3383C33.1976 14.1684 33.2372 14.9789 33.3563 15.6311L31.7621 15.6331ZM31.5035 10.752C29.5933 10.7126 27.4238 11.0482 27.4238 12.9055C27.4238 14.0319 28.1798 14.5659 29.0761 14.5659C30.3295 14.5659 31.1286 13.7751 31.4023 12.9653C31.464 12.787 31.4975 12.6002 31.5015 12.4117L31.5035 10.752Z" fill="black"/>
<path d="M35.5218 6.06934L37.6311 11.7208C37.85 12.3533 38.0888 13.104 38.2469 13.6774H38.2866C38.4658 13.104 38.6649 12.373 38.9023 11.6814L40.816 6.06934H42.6667L40.0394 12.8866C38.7853 16.1672 37.9301 17.8458 36.7355 18.8744C35.8803 19.6257 35.0251 19.9219 34.5865 20.0007L34.1487 18.5388C34.7095 18.354 35.2297 18.0646 35.6812 17.6862C36.3168 17.1629 36.821 16.4998 37.1536 15.7494C37.2336 15.5714 37.2904 15.4335 37.2904 15.3343C37.2904 15.2351 37.2507 15.0972 37.1707 14.8798L33.6116 6.06934H35.5218Z" fill="black"/>
</g>
<defs>
<clipPath id="clip0_1213_1939">
<rect width="42.6667" height="20" fill="white"/>
</clipPath>
</defs>
</svg>
