<svg width="35" height="48" viewBox="0 0 35 48" fill="none" xmlns="http://www.w3.org/2000/svg">
<g filter="url(#filter0_d_550_1801)">
<path fill-rule="evenodd" clip-rule="evenodd" d="M14.7338 33.0625C15.8771 33.0625 16.9555 32.782 17.9685 32.22C18.9811 31.6584 19.8559 30.9062 20.5912 29.9645C21.3261 29.0225 21.9058 27.9569 22.3309 26.7674C22.7551 25.5778 22.968 24.3385 22.968 23.0494C22.968 21.4633 22.7063 20.224 22.1839 19.3321C21.6607 18.4395 20.5741 18.0318 19.1699 18.0318C18.7119 18.0318 18.2384 18.0763 17.5031 18.2414C16.7678 18.4073 16.1336 18.7503 15.5457 19.2786L12.3499 32.876C13.2951 33.0434 13.6224 33.0625 13.8516 33.0625C14.0796 33.0625 14.374 33.0625 14.7338 33.0625V33.0625ZM21.1055 11.847C22.6742 11.847 24.0296 12.1282 25.1739 12.6899C26.3172 13.2519 27.2646 14.0116 28.0165 14.9697C28.7677 15.9286 29.3231 17.0515 29.6829 18.3406C30.042 19.6294 30.2223 21.0173 30.2223 22.5042C30.2223 24.7844 29.8058 26.9407 28.9725 28.973C28.1391 31.0054 27.0036 32.7734 25.566 34.2771C24.1277 35.7811 22.4291 36.9707 20.4684 37.8457C18.508 38.7211 16.3837 39.1595 14.0968 39.1595C13.8028 39.1595 13.2882 39.1509 12.553 39.1348C11.8177 39.1176 10.9758 39.0434 10.0284 38.9117C9.08061 38.7791 8.07581 38.581 7.01438 38.3167C5.95183 38.0527 4.94741 37.6895 4 37.2264L12.4793 1.18953L20.0767 0L17.0749 12.7719C17.728 12.4746 18.344 12.2608 18.9982 12.0949C19.6513 11.9298 20.3536 11.847 21.1055 11.847V11.847Z" fill="#002855"/>
</g>
<defs>
<filter id="filter0_d_550_1801" x="0" y="0" width="34.2223" height="47.1594" filterUnits="userSpaceOnUse" color-interpolation-filters="sRGB">
<feFlood flood-opacity="0" result="BackgroundImageFix"/>
<feColorMatrix in="SourceAlpha" type="matrix" values="0 0 0 0 0 0 0 0 0 0 0 0 0 0 0 0 0 0 127 0" result="hardAlpha"/>
<feOffset dy="4"/>
<feGaussianBlur stdDeviation="2"/>
<feComposite in2="hardAlpha" operator="out"/>
<feColorMatrix type="matrix" values="0 0 0 0 0 0 0 0 0 0 0 0 0 0 0 0 0 0 0.25 0"/>
<feBlend mode="normal" in2="BackgroundImageFix" result="effect1_dropShadow_550_1801"/>
<feBlend mode="normal" in="SourceGraphic" in2="effect1_dropShadow_550_1801" result="shape"/>
</filter>
</defs>
</svg>
