<svg width="12" height="12" viewBox="0 0 12 12" fill="none" xmlns="http://www.w3.org/2000/svg">
<path d="M10.4896 2.1455C10.8102 2.55824 11.037 3.03592 11.1542 3.54526C11.2714 4.0546 11.2762 4.58336 11.1682 5.09473C11.0602 5.60609 10.842 6.08777 10.5288 6.50621C10.2156 6.92465 9.81504 7.2698 9.35488 7.51762C8.96585 7.72802 8.49769 7.59854 8.18479 7.28624L4.71407 3.81492C4.40117 3.50202 4.27169 3.03386 4.48149 2.64483C4.7293 2.18457 5.07447 1.78388 5.49296 1.47066C5.91145 1.15743 6.39319 0.939212 6.90463 0.831195C7.41608 0.723177 7.94492 0.72796 8.45433 0.845211C8.96373 0.962461 9.44145 1.18936 9.85421 1.5101L11.2269 0.1374C11.2684 0.0944422 11.3179 0.0601696 11.3728 0.0365824C11.4276 0.0129951 11.4866 0.000565531 11.5463 1.88532e-05C11.606 -0.000527825 11.6652 0.0108194 11.7205 0.0333984C11.7757 0.0559773 11.8259 0.0893359 11.8682 0.131528C11.9104 0.173719 11.9438 0.223899 11.9664 0.279139C11.9891 0.334379 12.0005 0.393574 12 0.453268C11.9995 0.512962 11.9871 0.571961 11.9636 0.626822C11.94 0.681683 11.9058 0.731307 11.8629 0.772799L10.4902 2.1455H10.4896ZM0.772799 11.8623L2.1455 10.4896C2.55824 10.8102 3.03592 11.037 3.54526 11.1542C4.0546 11.2714 4.58336 11.2762 5.09473 11.1682C5.60609 11.0602 6.08777 10.842 6.50621 10.5288C6.92465 10.2156 7.2698 9.81504 7.51762 9.35488C7.72802 8.96585 7.59854 8.49769 7.28564 8.18479L3.81492 4.71407C3.50202 4.40117 3.03386 4.27169 2.64483 4.48149C2.18457 4.7293 1.78388 5.07447 1.47066 5.49296C1.15743 5.91145 0.939212 6.39319 0.831195 6.90463C0.723177 7.41608 0.72796 7.94492 0.845211 8.45433C0.962461 8.96373 1.18936 9.44145 1.5101 9.85421L0.1374 11.2269C0.0944422 11.2684 0.0601696 11.3179 0.0365824 11.3728C0.0129951 11.4276 0.000565531 11.4866 1.88532e-05 11.5463C-0.000527825 11.606 0.0108194 11.6652 0.0333984 11.7205C0.0559773 11.7757 0.0893359 11.8259 0.131528 11.8682C0.173719 11.9104 0.223899 11.9438 0.279139 11.9664C0.334379 11.9891 0.393574 12.0005 0.453268 12C0.512962 11.9995 0.571961 11.9871 0.626822 11.9636C0.681683 11.94 0.731307 11.9058 0.772799 11.8629V11.8623Z" fill="#E72E80"/>
</svg>
