<svg width="53" height="53" viewBox="0 0 53 53" fill="none" xmlns="http://www.w3.org/2000/svg">
<g clip-path="url(#clip0_1_940)">
<path d="M28.2446 46.375L6.625 24.7554V29.1721C6.625 30.3425 7.08875 31.4688 7.92792 32.2858L25.1308 49.4888C26.8533 51.2113 29.6579 51.2113 31.3804 49.4888L45.0942 35.775C46.8167 34.0525 46.8167 31.2479 45.0942 29.5254L28.2446 46.375Z" fill="#6B7280"/>
<path d="M25.1308 38.4471C26.8533 40.1696 29.6579 40.1696 31.3804 38.4471L45.0942 24.7333C46.8167 23.0108 46.8167 20.2062 45.0942 18.4837L27.8912 1.28083C27.0524 0.462208 25.9275 0.0027501 24.7554 0L11.0417 0C8.6125 0 6.625 1.9875 6.625 4.41667V18.1304C6.625 19.3008 7.08875 20.4271 7.92792 21.2442L25.1308 38.4471ZM16.0104 6.625C16.7425 6.625 17.4446 6.91583 17.9623 7.43351C18.48 7.95119 18.7708 8.65331 18.7708 9.38542C18.7708 10.1175 18.48 10.8196 17.9623 11.3373C17.4446 11.855 16.7425 12.1458 16.0104 12.1458C15.2783 12.1458 14.5762 11.855 14.0585 11.3373C13.5408 10.8196 13.25 10.1175 13.25 9.38542C13.25 8.65331 13.5408 7.95119 14.0585 7.43351C14.5762 6.91583 15.2783 6.625 16.0104 6.625Z" fill="#6B7280"/>
</g>
<defs>
<clipPath id="clip0_1_940">
<rect width="53" height="53" fill="white"/>
</clipPath>
</defs>
</svg>
