<svg width="11" height="11" viewBox="0 0 11 11" fill="none" xmlns="http://www.w3.org/2000/svg">
<path d="M10.7437 0.252084C10.4187 -0.0729165 9.89375 -0.0729165 9.56875 0.252084L5.49375 4.31875L1.41875 0.24375C1.09375 -0.08125 0.56875 -0.08125 0.24375 0.24375C-0.08125 0.56875 -0.08125 1.09375 0.24375 1.41875L4.31875 5.49375L0.24375 9.56875C-0.08125 9.89375 -0.08125 10.4187 0.24375 10.7437C0.56875 11.0687 1.09375 11.0687 1.41875 10.7437L5.49375 6.66875L9.56875 10.7437C9.89375 11.0687 10.4187 11.0687 10.7437 10.7437C11.0687 10.4187 11.0687 9.89375 10.7437 9.56875L6.66875 5.49375L10.7437 1.41875C11.0604 1.10208 11.0604 0.56875 10.7437 0.252084Z" fill="#4E5B68"/>
</svg>
