<svg width="87" height="17" viewBox="0 0 87 17" fill="none" xmlns="http://www.w3.org/2000/svg">
<g clip-path="url(#clip0_1301_888)">
<path d="M81.4556 6.83834L83.292 11.5839H83.3138L85.1067 6.83834H86.3729L82.5155 16.3655H81.313L82.752 13.0329L80.2011 6.83834H81.4556ZM77.2913 6.61929C78.15 6.61929 78.8258 6.85989 79.3206 7.35546C79.8153 7.85103 80.0602 8.51537 80.0602 9.37723V13.4621H78.955V12.5374H78.9013C78.4183 13.2969 77.7843 13.6757 76.9911 13.6757C76.3674 13.6938 75.7595 13.4649 75.2837 13.0329C75.0646 12.8348 74.8893 12.5871 74.7704 12.3077C74.6515 12.0282 74.5919 11.724 74.5961 11.417C74.585 11.1018 74.6457 10.7884 74.7731 10.504C74.9005 10.2197 75.0908 9.97279 75.3274 9.78482C75.8104 9.38262 76.4544 9.17613 77.2594 9.17613C77.8505 9.15476 78.437 9.29308 78.965 9.57833V9.29105C78.9677 9.07999 78.9265 8.87094 78.8444 8.67902C78.7623 8.48711 78.6414 8.31714 78.4904 8.1814C78.1792 7.88843 77.7777 7.72916 77.3634 7.73432C77.057 7.72518 76.7537 7.80148 76.4832 7.95573C76.2127 8.10997 75.9843 8.33686 75.8204 8.61413L74.8007 7.91746C75.3592 7.0556 76.1961 6.61929 77.2913 6.61929ZM71.4213 3.78055C71.7896 3.77162 72.1558 3.84116 72.4987 3.98511C72.8416 4.12906 73.1544 4.34455 73.4188 4.61906C73.6833 4.876 73.8937 5.19031 74.036 5.54108C74.1783 5.89185 74.2492 6.27103 74.2439 6.6534C74.2515 7.03798 74.1818 7.4198 74.0394 7.77298C73.897 8.12615 73.6854 8.44241 73.4188 8.70031C73.1535 8.97273 72.8403 9.18602 72.4974 9.3278C72.1545 9.46959 71.7888 9.53705 71.4213 9.52626H69.5195V13.4459H68.3589V3.78055H71.4213ZM77.4321 10.1475C77.0144 10.1351 76.6037 10.2639 76.2582 10.5156C76.1181 10.6138 76.0021 10.7466 75.9201 10.9029C75.8381 11.0591 75.7924 11.2342 75.7869 11.4134C75.7856 11.5711 75.82 11.7268 75.8872 11.8672C75.9544 12.0076 76.0523 12.1285 76.1726 12.2196C76.4297 12.435 76.7485 12.5486 77.0749 12.541C77.5643 12.5368 78.0334 12.3311 78.3847 11.9664C78.5653 11.7951 78.7095 11.5843 78.8075 11.3483C78.9056 11.1123 78.9553 10.8565 78.9533 10.5982C78.5894 10.2965 78.0845 10.1475 77.4405 10.1475H77.4321ZM71.4616 4.98715H69.5195V8.35378H71.4616C71.6747 8.36207 71.887 8.32241 72.0849 8.23735C72.2828 8.1523 72.4618 8.02375 72.6104 7.86C72.7564 7.70627 72.8724 7.52294 72.9516 7.32071C73.0308 7.11849 73.0716 6.90141 73.0716 6.68213C73.0716 6.46286 73.0308 6.24578 72.9516 6.04355C72.8724 5.84133 72.7564 5.658 72.6104 5.50426C72.4643 5.33547 72.2863 5.20202 72.0882 5.11284C71.89 5.02366 71.6764 4.98081 71.4616 4.98715Z" fill="#5F6368"/>
<path d="M51.9784 6.63899C52.3019 6.62963 52.6235 6.69467 52.9215 6.82972C53.2195 6.96477 53.487 7.16669 53.7059 7.42184H53.7595V6.84727H55.1348V13.1676C55.1348 15.7657 53.7059 16.834 52.0103 16.834C51.3872 16.8353 50.7778 16.6381 50.2596 16.2675C49.7415 15.8969 49.338 15.3698 49.1005 14.753L50.3566 14.1802C50.5814 14.7548 51.1298 15.4371 52.0103 15.4371C53.0937 15.4371 53.7595 14.7189 53.7595 13.3687V12.8605H53.7059C53.4896 13.1206 53.2231 13.3273 52.9248 13.4662C52.6265 13.6051 52.3036 13.6729 51.9784 13.6649C50.3348 13.6649 48.8321 12.1351 48.8321 10.1582C48.8321 8.18136 50.3348 6.63899 51.9784 6.63899ZM61.4257 6.65156C63.1313 6.65156 63.9581 8.09876 64.2365 8.89239L64.3875 9.29459L59.9968 11.2284C60.1307 11.5573 60.3535 11.8357 60.6366 12.0277C60.9197 12.2197 61.25 12.3166 61.585 12.3057C61.9108 12.2989 62.2299 12.205 62.5131 12.0326C62.7964 11.8601 63.0348 11.6145 63.2068 11.3182L64.3237 12.1226C64.0233 12.6049 63.616 13.0001 63.138 13.2727C62.6601 13.5453 62.1265 13.6868 61.585 13.6847C59.7184 13.6847 58.333 12.1441 58.333 10.1672C58.333 8.07542 59.7402 6.63899 61.4257 6.63899V6.65156ZM29.2852 2.74627C29.931 2.73519 30.5724 2.86261 31.1715 3.12103C31.7706 3.37944 32.3154 3.76362 32.7736 4.25093L31.7858 5.3085C31.1106 4.61293 30.2071 4.22925 29.2701 4.24016C28.7859 4.24036 28.3066 4.34339 27.8598 4.54328C27.413 4.74316 27.0078 5.03594 26.6674 5.40466C26.3271 5.77338 26.0584 6.21071 25.877 6.69134C25.6956 7.17197 25.6051 7.68635 25.6106 8.2047C25.6039 8.72346 25.6937 9.23846 25.8747 9.71973C26.0557 10.201 26.3242 10.6389 26.6648 11.008C27.0053 11.3771 27.4111 11.67 27.8583 11.8697C28.3056 12.0694 28.7855 12.1718 29.2701 12.171C30.6017 12.171 31.3648 11.5965 31.8479 11.0794C32.2437 10.6538 32.5019 10.0433 32.6093 9.20481H29.2382V7.71631H33.9627C34.0172 8.0234 34.0419 8.33568 34.0365 8.6482C34.0365 9.76143 33.748 11.1619 32.834 12.1405C31.92 13.1191 30.7946 13.6703 29.2818 13.6703C26.4693 13.6703 24.1079 11.2212 24.1079 8.21008C24.1079 5.19897 26.4727 2.74627 29.2852 2.74627ZM37.8201 6.63899C38.4695 6.64112 39.1037 6.84922 39.6427 7.23702C40.1816 7.62481 40.6012 8.17491 40.8483 8.81782C41.0954 9.46074 41.1591 10.1676 41.0312 10.8492C40.9033 11.5309 40.5896 12.1566 40.1297 12.6474C39.6698 13.1383 39.0844 13.4722 38.4473 13.6071C37.8103 13.7419 37.1502 13.6716 36.5504 13.4051C35.9507 13.1386 35.4381 12.6877 35.0776 12.1095C34.717 11.5313 34.5246 10.8517 34.5245 10.1564C34.5187 9.69187 34.5999 9.23075 34.7636 8.80043C34.9273 8.37012 35.1699 7.97936 35.4773 7.65133C35.7846 7.32329 36.1504 7.06466 36.5528 6.89077C36.9552 6.71687 37.3862 6.63126 37.8201 6.63899ZM44.9898 6.63899C45.6396 6.64112 46.2741 6.84946 46.8133 7.23765C47.3524 7.62584 47.7719 8.17647 48.0188 8.81991C48.2657 9.46334 48.3288 10.1707 48.2003 10.8526C48.0717 11.5344 47.7571 12.1601 47.2964 12.6506C46.8357 13.1411 46.2495 13.4743 45.6119 13.6082C44.9743 13.742 44.3139 13.6704 43.7143 13.4025C43.1147 13.1346 42.6028 12.6824 42.2432 12.103C41.8836 11.5236 41.6926 10.8431 41.6943 10.1475C41.6893 9.68357 41.7712 9.22332 41.9353 8.79394C42.0994 8.36455 42.3423 7.97477 42.6495 7.64764C42.9568 7.32052 43.3222 7.06271 43.7242 6.88946C44.1262 6.7162 44.5566 6.63104 44.9898 6.63899ZM57.6136 3.12333V13.4459H56.1846V3.11436L57.6136 3.12333ZM37.8235 8.03053C36.8356 8.03053 35.9786 8.89239 35.9786 10.1564C35.9786 11.4205 36.8373 12.2824 37.8235 12.2824C38.8096 12.2824 39.6683 11.4097 39.6683 10.1564C39.6683 8.90316 38.818 8.02155 37.8302 8.02155L37.8235 8.03053ZM44.9831 8.03053C43.9953 8.03053 43.1383 8.89239 43.1383 10.1564C43.1383 11.4205 43.997 12.2824 44.9831 12.2824C45.9693 12.2824 46.828 11.4097 46.828 10.1564C46.828 8.90316 45.9776 8.02155 44.9898 8.02155L44.9831 8.03053ZM52.1109 8.01796C51.113 8.01796 50.2862 8.9265 50.2862 10.1726C50.2862 11.4187 51.1248 12.2877 52.1109 12.2877C53.0971 12.2877 53.8602 11.4025 53.8602 10.1726C53.8602 8.94266 53.0937 8.00899 52.1176 8.00899L52.1109 8.01796ZM61.4609 7.99642C61.2227 8.01011 60.9895 8.07432 60.7747 8.1853C60.5599 8.29628 60.3678 8.45183 60.2096 8.64292C60.0514 8.83401 59.9302 9.05684 59.8531 9.29847C59.7759 9.5401 59.7444 9.79573 59.7603 10.0505L62.6919 8.74156C62.5309 8.29807 62.0546 7.98744 61.4676 7.98744L61.4609 7.99642Z" fill="#5F6368"/>
<path d="M16.497 3.28124C16.084 3.02588 15.628 2.86014 15.1551 2.7935C14.6822 2.72686 14.2017 2.76061 13.741 2.89284C13.2803 3.02507 12.8484 3.25317 12.4701 3.56412C12.0918 3.87508 11.7744 4.26279 11.536 4.7051L9.00526 9.39683C8.27403 10.7525 9.22497 11.2247 10.2665 11.8998L12.7017 13.4045C13.0968 13.6473 13.5658 13.7126 14.0059 13.5861C14.446 13.4596 14.8213 13.1515 15.0496 12.7293L17.6509 7.90834C17.8589 7.52341 17.9941 7.09838 18.0486 6.65752C18.1032 6.21666 18.0762 5.7686 17.9691 5.33894C17.8619 4.90927 17.6768 4.5064 17.4242 4.15334C17.1716 3.80028 16.8565 3.50394 16.497 3.28124Z" fill="#EA4335"/>
<path d="M13.6341 5.22219L11.2006 3.71753C9.8589 2.92031 9.09413 2.86645 8.54236 3.80551L4.95163 10.4634C4.71322 10.9051 4.55851 11.3929 4.49633 11.8988C4.43415 12.4046 4.46572 12.9186 4.58924 13.4114C4.71276 13.9042 4.92581 14.3661 5.2162 14.7706C5.50659 15.1752 5.86862 15.5145 6.28159 15.7692C7.00711 16.2194 7.86995 16.3428 8.68041 16.1121C9.49086 15.8815 10.1826 15.3157 10.6035 14.5392L14.2563 7.74312C14.3703 7.53391 14.4446 7.30269 14.475 7.06271C14.5054 6.82272 14.4913 6.57867 14.4335 6.34453C14.3757 6.11038 14.2753 5.89074 14.1382 5.69815C14.001 5.50557 13.8297 5.34383 13.6341 5.22219Z" fill="#FBBC04"/>
<path d="M14.1036 1.80008L12.393 0.742506C11.4847 0.181097 10.4053 0.0289554 9.3922 0.319549C8.37913 0.610142 7.51538 1.31967 6.99093 2.29205L3.73563 8.32864C3.50461 8.75653 3.44179 9.26513 3.56099 9.74259C3.68019 10.2201 3.97165 10.6273 4.37126 10.8747L6.28654 12.058C6.5115 12.1971 6.75985 12.2873 7.01741 12.3236C7.27496 12.3599 7.53668 12.3415 7.78759 12.2695C8.0385 12.1975 8.2737 12.0732 8.47974 11.9038C8.68578 11.7344 8.85862 11.5232 8.98839 11.2823L12.7083 4.38565C12.8915 4.04609 13.1354 3.7485 13.4261 3.50987C13.7167 3.27124 14.0484 3.09624 14.4023 2.99487C14.7561 2.89349 15.1251 2.86773 15.4883 2.91905C15.8514 2.97037 16.2015 3.09776 16.5187 3.29396L14.1036 1.80008Z" fill="#34A853"/>
<path d="M7.45396 4.01924L5.60912 2.87908C5.21403 2.63655 4.74536 2.57122 4.30544 2.69738C3.86552 2.82353 3.49009 3.13092 3.26114 3.5524L1.03391 7.6552C0.774358 8.13554 0.605891 8.66599 0.538167 9.21616C0.470443 9.76632 0.504793 10.3254 0.639249 10.8613C0.773704 11.3972 1.00562 11.8995 1.32171 12.3393C1.6378 12.7791 2.03185 13.1478 2.48127 13.4243L3.88838 14.2915L5.5957 15.3437L6.33699 15.7962C5.7018 15.3368 5.25278 14.6369 5.08038 13.8373C4.90797 13.0377 5.02499 12.1978 5.40786 11.4869L5.98144 10.4239L8.08456 6.5312C8.19729 6.32195 8.2704 6.09098 8.29972 5.85147C8.32904 5.61196 8.31399 5.36861 8.25542 5.13533C8.19686 4.90205 8.09594 4.68341 7.95842 4.49191C7.8209 4.30041 7.64948 4.13979 7.45396 4.01924Z" fill="#4285F4"/>
</g>
<defs>
<clipPath id="clip0_1301_888">
<rect width="85.8689" height="16.65" fill="white" transform="translate(0.503906 0.175049)"/>
</clipPath>
</defs>
</svg>
