<svg width="76" height="65" viewBox="0 0 76 65" fill="none" xmlns="http://www.w3.org/2000/svg">
<g clip-path="url(#clip0_177_618)">
<path d="M68.8732 12.5732C61.3936 8.22714 51.8291 10.8095 47.5066 18.3385L36.6109 37.3367C33.4582 42.8229 37.517 44.7398 42.0427 47.4713L52.527 53.562C56.0775 55.6235 60.6124 54.3998 62.6602 50.8308L73.8613 31.3063C77.624 24.7455 75.3913 16.3608 68.8732 12.5732Z" fill="#EA4335"/>
<path d="M56.5444 20.437L46.0602 14.346C40.2725 11.1121 36.9948 10.8981 34.6188 14.6997L19.1556 41.655C14.8378 49.1789 17.4079 58.8016 24.8831 63.1381C31.4012 66.9257 39.7316 64.6784 43.4946 58.1176L59.2537 30.6411C61.3107 27.0676 60.095 22.4982 56.5444 20.437Z" fill="#FBBC04"/>
<path d="M58.5626 6.58046L51.1985 2.29911C43.0532 -2.43277 32.638 0.37296 27.9366 8.5716L13.9157 33.014C11.8448 36.6203 13.0745 41.2362 16.6573 43.3159L24.9042 48.1086C28.9767 50.4772 34.1819 49.0717 36.5351 44.9725L52.5528 17.0493C55.872 11.2658 63.2178 9.28362 68.9637 12.6246L58.5626 6.58016V6.58046Z" fill="#34A853"/>
<path d="M29.9283 15.565L21.9679 10.9492C18.4177 8.89241 13.8828 10.1113 11.835 13.6759L2.28383 30.2873C-2.41724 38.4626 0.370227 48.9226 8.5155 53.641L14.5759 57.154L21.9264 61.416L25.1162 63.2631C19.4533 59.4478 17.6549 51.8028 21.1172 45.7817L23.5906 41.4822L32.6465 25.7316C34.6898 22.1766 33.4741 17.6215 29.9283 15.5648V15.565Z" fill="#4285F4"/>
</g>
<defs>
<clipPath id="clip0_177_618">
<rect width="75.8333" height="65" fill="white"/>
</clipPath>
</defs>
</svg>
