<svg width="12" height="15" viewBox="0 0 12 15" fill="none" xmlns="http://www.w3.org/2000/svg">
<path d="M9.99996 5.33334H9.33329V4.00001C9.33329 2.16001 7.83996 0.666672 5.99996 0.666672C4.15996 0.666672 2.66663 2.16001 2.66663 4.00001V5.33334H1.99996C1.26663 5.33334 0.666626 5.93334 0.666626 6.66667V13.3333C0.666626 14.0667 1.26663 14.6667 1.99996 14.6667H9.99996C10.7333 14.6667 11.3333 14.0667 11.3333 13.3333V6.66667C11.3333 5.93334 10.7333 5.33334 9.99996 5.33334ZM5.99996 11.3333C5.26662 11.3333 4.66663 10.7333 4.66663 10C4.66663 9.26667 5.26662 8.66667 5.99996 8.66667C6.73329 8.66667 7.33329 9.26667 7.33329 10C7.33329 10.7333 6.73329 11.3333 5.99996 11.3333ZM3.99996 5.33334V4.00001C3.99996 2.89334 4.89329 2.00001 5.99996 2.00001C7.10662 2.00001 7.99996 2.89334 7.99996 4.00001V5.33334H3.99996Z" fill="#6B7280"/>
</svg>
