<svg width="100" height="100" viewBox="0 0 100 100" fill="none" xmlns="http://www.w3.org/2000/svg">
<rect x="0.5" y="0.5" width="99" height="99" rx="4.5" fill="#F3F3F3" stroke="#CDCFD6"/>
<g clip-path="url(#clip0_408_797)">
<path d="M65.0333 38.3333H61.6667V34.9666C61.6667 34.0666 60.9333 33.3333 60.0333 33.3333H59.9833C59.0667 33.3333 58.3333 34.0666 58.3333 34.9666V38.3333H54.9833C54.0833 38.3333 53.35 39.0666 53.3333 39.9666V40.0166C53.3333 40.9333 54.0667 41.6666 54.9833 41.6666H58.3333V45.0166C58.3333 45.9166 59.0667 46.6666 59.9833 46.65H60.0333C60.9333 46.65 61.6667 45.9166 61.6667 45.0166V41.6666H65.0333C65.9333 41.6666 66.6667 40.9333 66.6667 40.0333V39.9666C66.6667 39.0666 65.9333 38.3333 65.0333 38.3333ZM56.6667 45.0166V43.3333H54.9833C54.1 43.3333 53.2667 42.9833 52.6333 42.3666C52.0167 41.7333 51.6667 40.9 51.6667 39.9666C51.6667 39.3666 51.8333 38.8166 52.1167 38.3333H38.3333C36.5 38.3333 35 39.8333 35 41.6666V61.6666C35 63.5 36.5 65 38.3333 65H58.3333C60.1667 65 61.6667 63.5 61.6667 61.6666V47.8666C61.1667 48.15 60.6 48.3333 59.9667 48.3333C58.15 48.3166 56.6667 46.8333 56.6667 45.0166ZM56.6 61.6666H40C39.3167 61.6666 38.9167 60.8833 39.3333 60.3333L42.6333 55.95C42.9833 55.4833 43.6667 55.5166 44 55.9833L46.6667 60L51.0167 54.2C51.35 53.7666 52 53.75 52.3333 54.1833L57.25 60.3166C57.6833 60.8666 57.3 61.6666 56.6 61.6666Z" fill="#6B7280"/>
</g>
<defs>
<clipPath id="clip0_408_797">
<rect width="40" height="40" fill="white" transform="translate(30 30)"/>
</clipPath>
</defs>
</svg>
