<svg width="47" height="55" viewBox="0 0 47 55" fill="none" xmlns="http://www.w3.org/2000/svg">
<path d="M38.6307 29.0656C38.6043 24.5573 40.6469 21.1596 44.7717 18.6543C42.4647 15.3492 38.9744 13.5313 34.3737 13.181C30.0175 12.8372 25.2514 15.7193 23.5063 15.7193C21.662 15.7193 17.4446 13.3 14.1263 13.3C7.27796 13.4057 0 18.7601 0 29.6539C0 32.8731 0.588318 36.1981 1.76495 39.6223C3.33821 44.1305 9.00986 55.1763 14.9261 54.9979C18.0197 54.9251 20.2077 52.8032 24.2334 52.8032C28.1401 52.8032 30.1629 54.9979 33.6135 54.9979C39.5826 54.9119 44.7122 44.8709 46.2061 40.3494C38.201 36.5749 38.6307 29.2969 38.6307 29.0656V29.0656ZM31.6833 8.9041C35.0347 4.92469 34.7306 1.30223 34.6315 0C31.67 0.171868 28.2459 2.01615 26.2958 4.28349C24.1475 6.71609 22.8849 9.72378 23.1559 13.1149C26.3553 13.3595 29.2771 11.7135 31.6833 8.9041V8.9041Z" fill="black"/>
</svg>
