<svg width="21" height="16" viewBox="0 0 21 16" fill="none" xmlns="http://www.w3.org/2000/svg">
<path d="M16.7894 7.11804C16.7894 7.11804 17.0607 8.44677 17.1217 8.72511H15.9293L16.5008 7.17139C16.4937 7.18232 16.6184 6.84612 16.6898 6.63913L16.7894 7.11804ZM20.5712 1.71442V14.2856C20.571 14.7402 20.3903 15.1762 20.0688 15.4977C19.7473 15.8191 19.3114 15.9998 18.8567 16H1.71442C1.25978 15.9998 0.823811 15.8191 0.502331 15.4977C0.180851 15.1762 0.000170373 14.7402 0 14.2856V1.71442C0.000170373 1.25978 0.180851 0.823811 0.502331 0.502331C0.823811 0.180851 1.25978 0.000170373 1.71442 0H18.8567C19.3114 0.000170373 19.7473 0.180851 20.0688 0.502331C20.3903 0.823811 20.571 1.25978 20.5712 1.71442V1.71442ZM5.44669 10.6857L7.70366 5.14327H6.18594L4.78264 8.92889L4.62901 8.16135L4.12889 5.61125C4.0466 5.25769 3.79333 5.15741 3.47899 5.14327H1.16866L1.14359 5.25384C1.67269 5.38364 2.18021 5.58933 2.65038 5.86452L3.92897 10.6857H5.44669ZM8.81832 10.6928L9.71828 5.14327H8.28284L7.38674 10.6928H8.81832ZM13.8144 8.87875C13.8215 8.24685 13.4358 7.76472 12.611 7.3681C12.1077 7.11418 11.8004 6.94319 11.8004 6.6822C11.8075 6.44628 12.0614 6.20329 12.6251 6.20329C12.9923 6.19294 13.3572 6.26498 13.6929 6.41414L13.8215 6.47457L14.0182 5.27441C13.6078 5.11731 13.1719 5.03733 12.7325 5.03849C11.3144 5.03849 10.318 5.79574 10.311 6.87376C10.3 7.67023 11.0252 8.11314 11.5683 8.38055C12.1218 8.65183 12.3114 8.83053 12.3114 9.06967C12.3044 9.44122 11.8615 9.61221 11.4507 9.61221C10.8792 9.61221 10.572 9.52286 10.104 9.31587L9.91499 9.22652L9.71507 10.473C10.0506 10.6266 10.6722 10.7622 11.3151 10.7693C12.8219 10.7725 13.8041 10.0262 13.815 8.87682L13.8144 8.87875ZM18.8567 10.6928L17.6996 5.14327H16.5888C16.2462 5.14327 15.9852 5.24355 15.8386 5.60418L13.7064 10.6935H15.2132C15.2132 10.6935 15.4594 10.0076 15.5134 9.86163H17.3564C17.3994 10.0583 17.528 10.6935 17.528 10.6935L18.8567 10.6928Z" fill="#0066B3"/>
</svg>
