<svg width="500" height="183" viewBox="0 0 500 183" fill="none" xmlns="http://www.w3.org/2000/svg">
<path d="M170.552 55.7422L186.194 183H339.142L323.5 55.7422H170.552Z" fill="#AA8FFF"/>
<path d="M214.184 7.17962C223.939 16.3504 225.277 30.7744 217.172 39.3968C209.068 48.0192 194.59 47.5746 184.835 38.404C175.08 29.2333 173.742 14.8093 181.846 6.18686C189.951 -2.43543 204.429 -1.99105 214.184 7.17962Z" fill="#1A0826"/>
<path fill-rule="evenodd" clip-rule="evenodd" d="M499.434 101.565C495.913 72.9444 473.431 55.6413 442.902 55.7419H341.204L356.846 183H402.615L399.497 157.548H447.931C486.005 157.548 503.458 133.807 499.434 101.565ZM442.952 121.886L395.071 121.936L391.299 91.4042L439.431 91.4545C450.748 91.6054 456.532 97.9432 457.488 106.695C458.091 112.279 455.526 121.886 442.952 121.886Z" fill="#1A0826"/>
<path d="M11.2662 147.438L15.6419 183H168.44L163.41 142.308H92.1916L91.5378 137.227L157.173 91.4045L152.798 55.742H0L4.97928 96.4846H76.3485L77.0024 101.565L11.2662 147.438Z" fill="#1A0826"/>
</svg>
