<svg width="26" height="16" viewBox="0 0 26 16" fill="none" xmlns="http://www.w3.org/2000/svg">
<path d="M16.5097 1.70361H9.54077V14.2256H16.5097V1.70361Z" fill="#FF5F00"/>
<path d="M9.98321 7.96452C9.98321 5.4203 11.1779 3.16368 13.0142 1.70352C11.6646 0.641586 9.96109 0 8.1027 0C3.70009 0 0.138184 3.56191 0.138184 7.96452C0.138184 12.3671 3.70009 15.929 8.1027 15.929C9.96109 15.929 11.6646 15.2875 13.0142 14.2255C11.1779 12.7875 9.98321 10.5087 9.98321 7.96452Z" fill="#EB001B"/>
<path d="M25.9123 7.96452C25.9123 12.3671 22.3504 15.929 17.9478 15.929C16.0894 15.929 14.3859 15.2875 13.0364 14.2255C14.8948 12.7654 16.0673 10.5087 16.0673 7.96452C16.0673 5.4203 14.8726 3.16368 13.0364 1.70352C14.3859 0.641586 16.0894 0 17.9478 0C22.3504 0 25.9123 3.58403 25.9123 7.96452Z" fill="#F79E1B"/>
</svg>
