<svg width="76" height="64" viewBox="0 0 76 64" fill="none" xmlns="http://www.w3.org/2000/svg">
<path d="M7.4673 6.87501C6.49455 6.87501 5.67858 6.54501 5.0194 5.88501C4.36022 5.22501 4.03177 4.40918 4.03406 3.43751C4.03406 2.46355 4.36365 1.64657 5.02283 0.986575C5.68202 0.326575 6.49684 -0.00227977 7.4673 1.18944e-05H55.5327C56.5054 1.18944e-05 57.3214 0.330012 57.9806 0.990012C58.6398 1.65001 58.9682 2.46584 58.9659 3.43751C58.9659 4.41147 58.6363 5.22845 57.9772 5.88845C57.318 6.54845 56.5032 6.8773 55.5327 6.87501H7.4673ZM7.4673 55C6.49455 55 5.67858 54.67 5.0194 54.01C4.36022 53.35 4.03177 52.5342 4.03406 51.5625V34.375H3.43324C2.34605 34.375 1.45913 33.9591 0.77248 33.1272C0.0858312 32.2953 -0.143052 31.3362 0.085831 30.25L3.51907 13.0625C3.69074 12.2604 4.09128 11.6016 4.72071 11.0859C5.35014 10.5703 6.06539 10.3125 6.86648 10.3125H56.1335C56.9346 10.3125 57.6499 10.5703 58.2793 11.0859C58.9087 11.6016 59.3093 12.2604 59.4809 13.0625L62.9142 30.25C63.143 31.3385 62.9142 32.2976 62.2275 33.1272C61.5409 33.9568 60.6539 34.3727 59.5667 34.375H58.9659V51.5625C58.9659 52.5364 58.6363 53.3534 57.9772 54.0134C57.318 54.6734 56.5032 55.0023 55.5327 55C54.5599 55 53.744 54.67 53.0848 54.01C52.4256 53.35 52.0972 52.5342 52.0995 51.5625V34.375H38.3665V51.5625C38.3665 52.5364 38.0369 53.3534 37.3777 54.0134C36.7185 54.6734 35.9037 55.0023 34.9332 55H7.4673ZM10.9005 48.125H31.5V34.375H10.9005V48.125Z" fill="#6B7280"/>
<circle cx="58.9997" cy="47.3333" r="16.6667" fill="#ED2079"/>
<path d="M58.3508 52.1502C57.4841 53.0057 56.0841 53.0057 55.2175 52.1391L52.7841 49.7057C52.173 49.0946 52.1841 48.1057 52.8175 47.5168C53.4175 46.9391 54.373 46.9613 54.9508 47.5391L56.7841 49.3724L63.9286 42.2279C64.5286 41.6279 65.4953 41.6279 66.0953 42.2279L66.1397 42.2724C66.7397 42.8724 66.7397 43.8502 66.1286 44.4502L58.3508 52.1502Z" fill="white"/>
</svg>
