<svg width="122" height="123" viewBox="0 0 122 123" fill="none" xmlns="http://www.w3.org/2000/svg">
<circle cx="62" cy="60" r="60" fill="url(#paint0_linear_659_2130)"/>
<path d="M35.7047 23V65.5794C29.6611 65.9365 24.2537 69.5873 21.7091 75.1429L0 123H30.4563L32.4046 116.532C40.794 114.508 47.0761 108.159 49.74 100.143H95.9016V23H35.7047ZM92.0051 96.2143H43.8158C42.5832 101.968 38.3288 107.048 32.6034 109.389C32.4046 109.468 32.2058 109.508 32.007 109.508C31.3708 109.508 30.8142 109.151 30.5756 108.516C30.2575 107.722 30.6154 106.73 31.4503 106.492C36.818 104.746 40.9928 99.1508 41.1121 93.1984V90.9365H56.4197C58.7656 90.9365 60.6741 89.0317 60.6741 86.6905V86.6111C60.6741 84.2698 58.7656 82.3651 56.4197 82.3651H29.1442C28.2695 82.3651 27.5936 81.6508 27.5936 80.8175C27.5936 79.9841 28.3093 79.2698 29.1442 79.2698H39.6012V26.8889H91.9654V96.2143H92.0051Z" fill="#111827"/>
<rect x="54" y="37" width="24" height="4" fill="#ED2079"/>
<rect x="47" y="50" width="38" height="4" fill="#ED2079"/>
<rect x="47" y="60" width="38" height="4" fill="#ED2079"/>
<rect x="47" y="70" width="38" height="4" fill="#ED2079"/>
<defs>
<linearGradient id="paint0_linear_659_2130" x1="102.829" y1="5.37521e-07" x2="21.5535" y2="108.608" gradientUnits="userSpaceOnUse">
<stop stop-color="#FFE4F0"/>
<stop offset="1" stop-color="#FFE4F0" stop-opacity="0.2"/>
</linearGradient>
</defs>
</svg>
