<svg width="58" height="56" viewBox="0 0 58 56" fill="none" xmlns="http://www.w3.org/2000/svg">
<path d="M0 55.9643L26.7801 0.71099C26.8739 0.515793 27.0167 0.348215 27.1945 0.224563C27.3723 0.100912 27.5791 0.0253997 27.7948 0.00537454C28.0104 -0.0146507 28.2276 0.0214936 28.4251 0.11029C28.6227 0.199086 28.7939 0.33751 28.922 0.512091L54.7331 35.5184C60.9857 43.9946 54.9422 55.9847 44.4056 56C42.3409 56.0036 40.3057 55.5096 38.4724 54.5597C36.6391 53.6097 35.0618 52.2319 33.8741 50.543L29.4065 44.1629C28.67 43.1161 27.5668 42.3846 26.316 42.1134C25.0651 41.8423 23.758 42.0514 22.6542 42.6992L0 55.9643Z" fill="url(#paint0_linear_806_24)"/>
<path d="M54.7331 35.5184L28.922 0.512091C28.7939 0.33751 28.6227 0.199087 28.4251 0.11029C28.2276 0.0214936 28.0104 -0.0146507 27.7948 0.00537454C27.5791 0.0253997 27.3723 0.100912 27.1945 0.224563C27.0167 0.348215 26.8739 0.515793 26.7801 0.71099L0 55.9643L33.3437 36.416C35.6336 35.0747 38.9894 35.7122 40.5194 37.8797L45.0074 44.2598C46.1752 45.9452 47.734 47.3224 49.5503 48.2737C51.3667 49.2249 53.3865 49.7219 55.4369 49.7219V49.7219C56.7476 47.5536 57.3808 45.0432 57.2554 42.5126C57.13 39.982 56.2517 37.5466 54.7331 35.5184V35.5184Z" fill="url(#paint1_linear_806_24)"/>
<defs>
<linearGradient id="paint0_linear_806_24" x1="38.8466" y1="27.4094" x2="25.9232" y2="31.9994" gradientUnits="userSpaceOnUse">
<stop stop-color="#EE3124"/>
<stop offset="1" stop-color="#9E1C0F"/>
</linearGradient>
<linearGradient id="paint1_linear_806_24" x1="14.3055" y1="28.0826" x2="55.6664" y2="49.1558" gradientUnits="userSpaceOnUse">
<stop stop-color="#9E1C0F"/>
<stop offset="0.4" stop-color="#EE3124"/>
</linearGradient>
</defs>
</svg>
