<svg width="35" height="35" viewBox="0 0 35 35" fill="none" xmlns="http://www.w3.org/2000/svg">
<circle cx="17.5" cy="17.5" r="17.5" fill="#37B34A"/>
<path d="M24.9966 11.2522C24.767 11.1245 24.5145 11.0432 24.2535 11.0132C23.9925 10.9831 23.7281 11.0047 23.4755 11.0769C23.2229 11.1491 22.987 11.2703 22.7812 11.4337C22.5755 11.5971 22.404 11.7995 22.2766 12.0292L14.5636 18.7112L12.4386 16.5862C12.2541 16.3952 12.0334 16.2428 11.7894 16.138C11.5454 16.0332 11.2829 15.978 11.0174 15.9757C10.7518 15.9734 10.4885 16.024 10.2427 16.1246C9.99688 16.2251 9.77357 16.3736 9.58579 16.5614C9.398 16.7492 9.24949 16.9725 9.14893 17.2183C9.04837 17.4641 8.99777 17.7275 9.00008 17.993C9.00238 18.2586 9.05756 18.521 9.16237 18.765C9.26719 19.009 9.41956 19.2297 9.61058 19.4142L13.6106 23.4142C13.9886 23.7932 14.4986 24.0012 15.0246 24.0012L15.3016 23.9812C15.6081 23.9383 15.9005 23.8249 16.1558 23.6498C16.4111 23.4747 16.6222 23.2428 16.7726 22.9722L25.7726 13.9722C25.9002 13.7427 25.9814 13.4902 26.0115 13.2293C26.0416 12.9684 26.02 12.7041 25.9479 12.4515C25.8759 12.1989 25.7548 11.963 25.5915 11.7572C25.4283 11.5515 25.2261 11.3799 24.9966 11.2522Z" fill="white"/>
</svg>
