<svg width="210" height="40" viewBox="0 0 210 40" fill="none" xmlns="http://www.w3.org/2000/svg">
<path d="M51.8484 12.8603V27.6994H49.5618V15.171H46.957V12.8603H51.8484Z" fill="#010101"/>
<path d="M54.7832 20.7747H60.6529V22.7532H54.7832V20.7747Z" fill="#010101"/>
<path d="M65.5245 27.0091C64.6327 26.5658 63.8897 25.8915 63.3806 25.0633C62.8756 24.2056 62.6104 23.2381 62.6104 22.254C62.6104 21.2698 62.8756 20.3023 63.3806 19.4446C63.8911 18.6252 64.6297 17.9573 65.514 17.5154C66.4745 17.0395 67.5441 16.8002 68.6258 16.8193C69.6273 16.7979 70.6184 17.0167 71.5086 17.4557C72.3152 17.8606 72.9672 18.4987 73.3714 19.2789L71.3733 20.3927C71.0841 19.9296 70.671 19.5486 70.1764 19.2888C69.5348 18.9738 68.8069 18.8563 68.0926 18.9524C67.3782 19.0486 66.7126 19.3537 66.187 19.8258C65.5487 20.4291 65.2296 21.2346 65.2296 22.2423C65.2296 23.2501 65.5453 24.0556 66.1766 24.6589C66.7034 25.1291 67.3689 25.4329 68.0826 25.529C68.7964 25.6251 69.5239 25.5088 70.166 25.1959C70.6606 24.9361 71.0737 24.5551 71.3629 24.092L73.3714 25.2191C72.9532 25.9989 72.2961 26.6384 71.4877 27.0522C70.6065 27.496 69.6217 27.7185 68.6258 27.6986C67.5482 27.7173 66.4827 27.4804 65.5245 27.0091Z" fill="#010101"/>
<path d="M75.3271 11.8712H78.262V27.6996H75.3271V11.8712Z" fill="#010101"/>
<path d="M81.6189 14.5065C81.4857 14.3653 81.3796 14.1952 81.3071 14.0066C81.2346 13.818 81.1973 13.6149 81.1973 13.4097C81.1973 13.2044 81.2346 13.0014 81.3071 12.8128C81.3796 12.6242 81.4857 12.4541 81.6189 12.3128C81.902 12.018 82.2776 11.8597 82.6643 11.872C83.0479 11.8589 83.4216 12.0091 83.7098 12.2923C83.8455 12.4226 83.9536 12.5849 84.0266 12.7674C84.0995 12.95 84.1354 13.1483 84.1317 13.3482C84.1365 13.5594 84.1023 13.7694 84.0313 13.9652C83.9603 14.1609 83.854 14.3382 83.719 14.486C83.5806 14.6393 83.4157 14.7593 83.2343 14.8386C83.053 14.9179 82.859 14.9549 82.6643 14.9473C82.2776 14.9597 81.902 14.8014 81.6189 14.5065ZM81.5088 16.7481H83.8015V27.6996H81.5088V16.7481Z" fill="#010101"/>
<path d="M89.002 27.0091C88.1102 26.5658 87.3672 25.8915 86.8581 25.0633C86.3532 24.2056 86.0879 23.2381 86.0879 22.254C86.0879 21.2698 86.3532 20.3023 86.8581 19.4446C87.3686 18.6252 88.1072 17.9573 88.9916 17.5154C89.952 17.0395 91.0216 16.8002 92.1033 16.8193C93.1048 16.7979 94.0959 17.0167 94.9861 17.4557C95.7927 17.8606 96.4447 18.4987 96.849 19.2789L94.856 20.4059C94.5668 19.9429 94.1537 19.5618 93.6592 19.3021C93.0176 18.987 92.2896 18.8695 91.5753 18.9657C90.861 19.0618 90.1953 19.3669 89.6698 19.8391C89.0315 20.4424 88.7123 21.2479 88.7123 22.2556C88.7123 23.2633 89.0257 24.0688 89.6524 24.6721C90.1792 25.1424 90.8447 25.4462 91.5584 25.5422C92.2722 25.6383 92.9997 25.522 93.6418 25.2091C94.1364 24.9494 94.5495 24.5684 94.8387 24.1053L96.8368 25.2191C96.4218 25.9972 95.7691 26.6365 94.9653 27.0522C94.0841 27.496 93.0992 27.7185 92.1033 27.6986C91.0258 27.7173 89.9602 27.4804 89.002 27.0091Z" fill="#010101"/>
<path d="M103.032 22.8124L101.23 24.6904V27.6996H98.8066V11.8712H101.23V21.4323L106.253 16.2996H109.161L104.838 21.0837L109.568 27.6996H106.621L103.032 22.8124Z" fill="#010101"/>
<path d="M119.112 27.0107C118.282 26.56 117.596 25.8867 117.133 25.0679C116.648 24.2078 116.401 23.2358 116.416 22.2503C116.4 21.268 116.647 20.299 117.133 19.443C117.599 18.6285 118.284 17.9592 119.112 17.5104C119.99 17.04 120.975 16.8018 121.972 16.8187C122.834 16.8037 123.687 16.9883 124.464 17.3578C125.183 17.7065 125.785 18.254 126.198 18.9344L125.106 19.6667C124.77 19.1577 124.302 18.7478 123.751 18.4801C123.195 18.2135 122.585 18.0778 121.967 18.0834C121.233 18.0721 120.509 18.2509 119.866 18.6021C119.247 18.9443 118.742 19.4564 118.41 20.077C118.066 20.7537 117.887 21.501 117.887 22.2588C117.887 23.0167 118.066 23.7639 118.41 24.4406C118.744 25.0569 119.249 25.5652 119.866 25.9053C120.509 26.2565 121.233 26.4353 121.967 26.4241C122.584 26.4299 123.193 26.2978 123.751 26.0376C124.304 25.7731 124.773 25.3625 125.106 24.8509L126.193 25.5833C125.778 26.2656 125.173 26.8134 124.45 27.1599C123.675 27.5272 122.826 27.7117 121.967 27.6989C120.972 27.716 119.989 27.479 119.112 27.0107Z" fill="#E71583"/>
<path d="M136.758 17.6157C137.544 18.4338 137.937 19.6254 137.937 21.1904V27.6996H136.501V21.3398C136.501 20.1731 136.225 19.2839 135.672 18.6721C135.12 18.0603 134.334 17.7544 133.314 17.7544C132.168 17.7544 131.261 18.1137 130.594 18.8322C129.927 19.5507 129.592 20.5442 129.59 21.8129V27.6996H128.154V11.8712H129.59V18.4516C129.983 17.7953 130.543 17.27 131.207 16.9363C131.944 16.5697 132.752 16.3872 133.566 16.4028C134.905 16.3933 135.969 16.7976 136.758 17.6157Z" fill="#E71583"/>
<path d="M151.615 22.6958H142.365C142.388 23.2079 142.517 23.7103 142.745 24.1732C142.972 24.6362 143.294 25.0501 143.69 25.3904C144.489 26.0751 145.498 26.4174 146.717 26.4174C147.366 26.4246 148.01 26.3035 148.609 26.0615C149.181 25.8256 149.692 25.4676 150.101 25.0142L150.942 25.9497C150.448 26.5221 149.816 26.9689 149.103 27.2512C148.332 27.556 147.507 27.7081 146.675 27.6986C145.624 27.7188 144.585 27.4772 143.658 26.997C142.801 26.5472 142.091 25.8744 141.609 25.0549C141.111 24.1991 140.857 23.2304 140.873 22.2484C140.855 21.2704 141.096 20.3043 141.574 19.4419C142.019 18.638 142.686 17.9692 143.501 17.5099C144.341 17.0436 145.296 16.8048 146.265 16.8185C147.23 16.8039 148.182 17.0429 149.019 17.5099C149.828 17.9671 150.49 18.6323 150.931 19.4317C151.409 20.2976 151.65 21.2671 151.632 22.2484L151.615 22.6958ZM143.595 19.0453C142.865 19.7224 142.427 20.6414 142.369 21.6179H150.21C150.151 20.6414 149.713 19.7224 148.984 19.0453C148.241 18.4099 147.284 18.0591 146.293 18.0591C145.302 18.0591 144.345 18.4099 143.602 19.0453H143.595Z" fill="#E71583"/>
<path d="M156.287 27.0074C155.457 26.5573 154.772 25.8842 154.309 25.0652C153.823 24.2059 153.575 23.234 153.591 22.2486C153.574 21.2663 153.823 20.2975 154.309 19.4421C154.774 18.6275 155.459 17.9583 156.287 17.5101C157.164 17.0399 158.148 16.8018 159.145 16.8187C160.006 16.8037 160.858 16.9882 161.634 17.3576C162.356 17.7056 162.96 18.2544 163.373 18.9371L162.287 19.6692C161.952 19.16 161.485 18.7501 160.934 18.4829C160.379 18.2164 159.769 18.0807 159.152 18.0863C158.418 18.0751 157.694 18.2538 157.052 18.6049C156.433 18.9465 155.928 19.4587 155.597 20.0793C155.253 20.7558 155.074 21.5029 155.074 22.2605C155.074 23.0181 155.253 23.7651 155.597 24.4416C155.93 25.0579 156.435 25.5662 157.052 25.9058C157.694 26.2569 158.418 26.4357 159.152 26.4244C159.768 26.4302 160.377 26.2982 160.934 26.038C161.487 25.7741 161.955 25.3635 162.287 24.8517L163.373 25.5838C162.959 26.2663 162.354 26.8141 161.631 27.1599C160.858 27.5271 160.009 27.7116 159.152 27.6989C158.153 27.717 157.166 27.4788 156.287 27.0074Z" fill="#E71583"/>
<path d="M169.189 22.0654L166.735 24.4983V27.6996H165.33V11.8712H166.735V22.6061L172.949 16.4775H174.691L170.238 21.0659L175.113 27.6996H173.391L169.189 22.0654Z" fill="#E71583"/>
<path d="M178.726 26.9949C177.918 26.5387 177.25 25.867 176.794 25.053C176.332 24.1915 176.09 23.227 176.09 22.247C176.09 21.267 176.332 20.3025 176.794 19.4409C177.248 18.6284 177.917 17.9596 178.726 17.5092C179.574 17.0552 180.52 16.8178 181.48 16.8178C182.441 16.8178 183.386 17.0552 184.235 17.5092C185.043 17.9593 185.709 18.6299 186.157 19.4443C186.613 20.3079 186.851 21.2716 186.851 22.2504C186.851 23.2291 186.613 24.1928 186.157 25.0564C185.707 25.8708 185.042 26.543 184.237 26.9983C183.39 27.4588 182.444 27.6998 181.482 27.6998C180.521 27.6998 179.574 27.4588 178.727 26.9983L178.726 26.9949ZM183.501 25.8969C184.098 25.5515 184.583 25.0397 184.899 24.4227C185.229 23.7461 185.401 23.0016 185.401 22.247C185.401 21.4924 185.229 20.7479 184.899 20.0713C184.583 19.4542 184.098 18.9424 183.501 18.5971C182.881 18.2569 182.186 18.0787 181.48 18.0787C180.775 18.0787 180.08 18.2569 179.46 18.5971C178.862 18.9439 178.374 19.4551 178.052 20.0713C177.715 20.7459 177.539 21.4911 177.539 22.247C177.539 23.0028 177.715 23.7481 178.052 24.4227C178.374 25.0389 178.862 25.55 179.46 25.8969C180.08 26.2371 180.775 26.4153 181.48 26.4153C182.186 26.4153 182.881 26.2371 183.501 25.8969Z" fill="#E71583"/>
<path d="M199.568 16.8178V27.5965H198.178V25.6287C197.806 26.2753 197.261 26.8043 196.605 27.1558C195.901 27.5271 195.114 27.7139 194.318 27.699C192.916 27.699 191.81 27.3061 191 26.5203C190.19 25.7346 189.785 24.5833 189.785 23.0664V16.8178H191.235V22.9263C191.235 24.0651 191.514 24.926 192.072 25.5091C192.63 26.0921 193.424 26.386 194.454 26.3905C195.589 26.3905 196.481 26.0455 197.129 25.3553C197.778 24.6652 198.106 23.7052 198.111 22.4753V16.8178H199.568Z" fill="#E71583"/>
<path d="M209.352 26.9628C209.039 27.2133 208.671 27.4 208.273 27.5105C207.839 27.6372 207.387 27.701 206.932 27.6996C205.856 27.6996 205.028 27.4341 204.447 26.9031C203.865 26.3721 203.575 25.622 203.575 24.6529V18.3206H201.525V17.1291H203.575V14.8391H205.122V17.1291H208.61V18.3239H205.122V24.5766C205.122 25.2005 205.293 25.6751 205.635 26.0004C205.976 26.3256 206.467 26.4883 207.106 26.4883C207.421 26.489 207.734 26.4418 208.033 26.3489C208.317 26.2632 208.579 26.1279 208.807 25.9506L209.352 26.9628Z" fill="#E71583"/>
<path d="M20.9962 0H19.0038C8.50831 0 0 8.50831 0 19.0038V20.9962C0 31.4917 8.50831 40 19.0038 40H20.9962C31.4917 40 40 31.4917 40 20.9962V19.0038C40 8.50831 31.4917 0 20.9962 0Z" fill="#131313"/>
<path d="M20.0525 12.8604C18.1079 12.8627 16.2436 13.6326 14.8686 15.0012C13.4935 16.3699 12.7201 18.2255 12.7178 20.1611V31.2337C12.7505 31.2577 12.7849 31.2783 12.8194 31.3005C13.469 31.7188 14.154 32.08 14.8665 32.3802C15.0938 32.4762 15.3211 32.5653 15.5552 32.6458H15.5776V32.6047L15.5604 29.244L15.526 29.2269V29.1806L15.5621 29.1978L15.5483 25.9245C16.4696 26.6392 17.5491 27.1246 18.6969 27.3402C19.8447 27.5558 21.0277 27.4955 22.1473 27.1642C23.267 26.8329 24.2909 26.2402 25.134 25.4354C25.9771 24.6307 26.6148 23.6372 26.9942 22.5376C27.3736 21.438 27.4837 20.2641 27.3153 19.1136C27.1469 17.9631 26.7048 16.8692 26.026 15.9231C25.3471 14.977 24.451 14.2059 23.4123 13.6741C22.3736 13.1423 21.2223 12.8651 20.0542 12.8656L20.0525 12.8604ZM20.0525 24.6683C19.1569 24.6683 18.2814 24.4039 17.5367 23.9087C16.7921 23.4134 16.2117 22.7095 15.8689 21.8859C15.5262 21.0623 15.4365 20.1561 15.6112 19.2818C15.786 18.4075 16.2172 17.6043 16.8505 16.974C17.4838 16.3437 18.2907 15.9144 19.1691 15.7405C20.0474 15.5666 20.9579 15.6558 21.7853 15.997C22.6128 16.3381 23.32 16.9158 23.8175 17.657C24.3151 18.3982 24.5807 19.2696 24.5807 20.1611C24.5793 21.356 24.1018 22.5017 23.2529 23.3466C22.404 24.1916 21.253 24.6669 20.0525 24.6683Z" fill="#E63081"/>
<path d="M28.344 29.7744H32.8423V32.8573H19.9935C19.6763 32.8573 19.3608 32.8457 19.0487 32.8241C18.9042 32.8125 18.7614 32.8008 18.6169 32.7842H18.5837C17.5912 32.6782 16.6147 32.4553 15.6745 32.1202V32.0803L15.6613 28.8098V28.765C17.8555 29.8552 20.3787 30.0837 22.7332 29.4055C25.0877 28.7273 27.1025 27.1916 28.3803 25.1013C29.658 23.011 30.106 20.5179 29.6358 18.1137C29.1655 15.7094 27.8113 13.5686 25.8401 12.1135C23.869 10.6584 21.424 9.99462 18.9874 10.2531C16.5508 10.5115 14.2996 11.6735 12.6777 13.5097C11.0558 15.346 10.1809 17.7232 10.2258 20.1725C10.2706 22.6219 11.2318 24.9656 12.9198 26.7412V30.7422C10.8036 29.3422 9.14807 27.3485 8.16085 25.0114C7.25086 22.8634 6.9426 20.5085 7.2691 18.1987C7.5956 15.889 8.54456 13.7117 10.0143 11.9C11.484 10.0884 13.4191 8.71072 15.6121 7.91468C17.8052 7.11864 20.1735 6.93423 22.4634 7.38122C24.7533 7.8282 26.8784 8.88973 28.6109 10.452C30.3434 12.0144 31.6181 14.0186 32.2983 16.2499C32.9785 18.4812 33.0386 20.8555 32.4722 23.1184C31.9058 25.3813 30.7342 27.4474 29.083 29.0954C28.8422 29.3328 28.5964 29.5585 28.344 29.7744Z" fill="#FDECF3"/>
</svg>
