<svg width="136" height="26" viewBox="0 0 136 26" fill="none" xmlns="http://www.w3.org/2000/svg">
<path d="M33.6097 8.24402V17.7562H32.1274V9.72521H30.439V8.24402H33.6097Z" fill="#010101"/>
<path d="M35.5125 13.3174H39.3173V14.5857H35.5125V13.3174Z" fill="#010101"/>
<path d="M42.4744 17.3128C41.8964 17.0286 41.4148 16.5963 41.0847 16.0654C40.7574 15.5156 40.5854 14.8954 40.5854 14.2646C40.5854 13.6337 40.7574 13.0135 41.0847 12.4637C41.4156 11.9385 41.8944 11.5103 42.4677 11.2271C43.0903 10.922 43.7836 10.7686 44.4848 10.7808C45.134 10.7671 45.7765 10.9074 46.3535 11.1888C46.8764 11.4483 47.299 11.8574 47.5611 12.3575L46.2658 13.0715C46.0784 12.7746 45.8106 12.5304 45.49 12.3639C45.0741 12.1619 44.6022 12.0866 44.1392 12.1482C43.6761 12.2099 43.2446 12.4054 42.904 12.7081C42.4902 13.0948 42.2833 13.6112 42.2833 14.2571C42.2833 14.9031 42.4879 15.4195 42.8972 15.8062C43.2386 16.1076 43.67 16.3024 44.1327 16.364C44.5954 16.4256 45.067 16.351 45.4832 16.1504C45.8038 15.9839 46.0716 15.7397 46.259 15.4428L47.5611 16.1653C47.2899 16.6652 46.864 17.0751 46.34 17.3404C45.7688 17.6249 45.1304 17.7675 44.4848 17.7547C43.7863 17.7668 43.0956 17.6149 42.4744 17.3128Z" fill="#010101"/>
<path d="M48.8291 7.60938H50.7315V17.7557H48.8291V7.60938Z" fill="#010101"/>
<path d="M52.9076 9.29867C52.8212 9.20811 52.7525 9.09907 52.7055 8.97819C52.6585 8.85731 52.6343 8.72712 52.6343 8.59556C52.6343 8.46399 52.6585 8.3338 52.7055 8.21292C52.7525 8.09204 52.8212 7.983 52.9076 7.89244C53.0911 7.70345 53.3346 7.60195 53.5853 7.60989C53.8339 7.60146 54.0762 7.69775 54.263 7.8793C54.3509 7.96282 54.421 8.06683 54.4683 8.18384C54.5156 8.30086 54.5388 8.42799 54.5364 8.55612C54.5396 8.69149 54.5174 8.82613 54.4714 8.95162C54.4254 9.07711 54.3564 9.19078 54.2689 9.28552C54.1792 9.38375 54.0723 9.46066 53.9548 9.51151C53.8372 9.56237 53.7114 9.58609 53.5853 9.58123C53.3346 9.58916 53.0911 9.48765 52.9076 9.29867ZM52.8362 10.7356H54.3224V17.7557H52.8362V10.7356Z" fill="#010101"/>
<path d="M57.6937 17.3128C57.1156 17.0286 56.634 16.5963 56.304 16.0654C55.9766 15.5156 55.8047 14.8954 55.8047 14.2646C55.8047 13.6337 55.9766 13.0135 56.304 12.4637C56.6349 11.9385 57.1137 11.5103 57.6869 11.2271C58.3095 10.922 59.0029 10.7686 59.704 10.7808C60.3532 10.7671 60.9957 10.9074 61.5727 11.1888C62.0956 11.4483 62.5182 11.8574 62.7803 12.3575L61.4884 13.08C61.301 12.7831 61.0332 12.5389 60.7126 12.3724C60.2967 12.1704 59.8248 12.0951 59.3618 12.1567C58.8987 12.2184 58.4672 12.4139 58.1266 12.7166C57.7128 13.1033 57.5059 13.6197 57.5059 14.2657C57.5059 14.9116 57.7091 15.428 58.1153 15.8147C58.4568 16.1161 58.8881 16.3109 59.3508 16.3725C59.8135 16.4341 60.2851 16.3595 60.7014 16.1589C61.0219 15.9924 61.2897 15.7482 61.4772 15.4513L62.7724 16.1653C62.5034 16.6641 62.0803 17.0739 61.5592 17.3404C60.988 17.6249 60.3496 17.7675 59.704 17.7547C59.0056 17.7668 58.3148 17.6149 57.6937 17.3128Z" fill="#010101"/>
<path d="M66.788 14.6229L65.6194 15.8268V17.7557H64.0488V7.60938H65.6194V13.7382L68.8758 10.4481H70.7606L67.9586 13.5148L71.0244 17.7557H69.1146L66.788 14.6229Z" fill="#010101"/>
<path d="M77.2116 17.3138C76.6735 17.0249 76.2291 16.5933 75.929 16.0684C75.6145 15.5171 75.454 14.894 75.4639 14.2623C75.4535 13.6325 75.614 13.0114 75.929 12.4627C76.2306 11.9406 76.6749 11.5115 77.2116 11.2238C77.7806 10.9223 78.4192 10.7696 79.0658 10.7805C79.6241 10.7708 80.1771 10.8892 80.6806 11.126C81.1468 11.3495 81.5372 11.7005 81.8048 12.1367L81.0971 12.6061C80.8792 12.2798 80.5758 12.0171 80.2188 11.8454C79.8584 11.6746 79.4627 11.5875 79.0624 11.5911C78.5866 11.5839 78.117 11.6985 77.7001 11.9237C77.2992 12.143 76.9715 12.4713 76.7564 12.8691C76.5335 13.3029 76.4174 13.7819 76.4174 14.2677C76.4174 14.7535 76.5335 15.2325 76.7564 15.6663C76.9731 16.0613 77.3005 16.3871 77.7001 16.6052C78.117 16.8304 78.5866 16.945 79.0624 16.9378C79.462 16.9415 79.8572 16.8568 80.2188 16.69C80.5772 16.5205 80.8812 16.2573 81.0971 15.9293L81.8015 16.3988C81.533 16.8361 81.1404 17.1873 80.6718 17.4094C80.1697 17.6449 79.6189 17.7631 79.0624 17.755C78.4172 17.7659 77.7798 17.614 77.2116 17.3138Z" fill="#E71583"/>
<path d="M88.6499 11.2917C89.1596 11.8161 89.4145 12.5799 89.4145 13.5832V17.7557H88.4839V13.6789C88.4839 12.9311 88.3048 12.3611 87.9465 11.9689C87.5883 11.5767 87.0785 11.3806 86.4174 11.3806C85.6747 11.3806 85.0871 11.6109 84.6545 12.0715C84.222 12.5321 84.005 13.169 84.0036 13.9822V17.7557H83.073V7.60938H84.0036V11.8275C84.2582 11.4069 84.6217 11.0701 85.0521 10.8562C85.5299 10.6212 86.0531 10.5042 86.5812 10.5142C87.4492 10.5081 88.1387 10.7673 88.6499 11.2917Z" fill="#E71583"/>
<path d="M98.2805 14.5478H92.285C92.2997 14.8761 92.3833 15.1982 92.5308 15.4949C92.6783 15.7916 92.8866 16.057 93.1434 16.2751C93.6612 16.714 94.3153 16.9335 95.1056 16.9335C95.5264 16.9381 95.9437 16.8604 96.332 16.7053C96.7032 16.5541 97.0339 16.3246 97.2994 16.034L97.8445 16.6336C97.5241 17.0006 97.1147 17.287 96.6522 17.468C96.1529 17.6633 95.6177 17.7608 95.0783 17.7548C94.397 17.7677 93.7237 17.6128 93.123 17.305C92.5675 17.0166 92.1073 16.5854 91.7944 16.06C91.4715 15.5114 91.3069 14.8905 91.3175 14.261C91.306 13.6341 91.4624 13.0148 91.7717 12.462C92.0604 11.9466 92.4928 11.518 93.0208 11.2235C93.5657 10.9246 94.1846 10.7715 94.8126 10.7803C95.4386 10.771 96.0555 10.9242 96.5977 11.2235C97.1221 11.5166 97.5514 11.943 97.8377 12.4555C98.1473 13.0105 98.3037 13.632 98.2919 14.261L98.2805 14.5478ZM93.0821 12.2078C92.609 12.6418 92.3251 13.2309 92.2872 13.8569H97.3698C97.332 13.2309 97.048 12.6418 96.575 12.2078C96.0937 11.8004 95.4734 11.5756 94.8308 11.5756C94.1882 11.5756 93.5679 11.8004 93.0866 12.2078H93.0821Z" fill="#E71583"/>
<path d="M101.309 17.3117C100.771 17.0231 100.327 16.5917 100.027 16.0667C99.7124 15.5158 99.5516 14.8928 99.5615 14.2612C99.551 13.6315 99.7119 13.0104 100.027 12.4621C100.329 11.94 100.773 11.511 101.309 11.2237C101.878 10.9222 102.516 10.7696 103.162 10.7805C103.72 10.7708 104.273 10.8891 104.776 11.1259C105.243 11.349 105.635 11.7008 105.902 12.1384L105.199 12.6077C104.982 12.2813 104.679 12.0185 104.322 11.8473C103.962 11.6764 103.566 11.5895 103.166 11.593C102.691 11.5858 102.222 11.7004 101.805 11.9255C101.404 12.1444 101.077 12.4727 100.862 12.8706C100.639 13.3043 100.523 13.7831 100.523 14.2688C100.523 14.7544 100.639 15.2333 100.862 15.6669C101.078 16.062 101.406 16.3878 101.805 16.6055C102.222 16.8306 102.691 16.9452 103.166 16.938C103.566 16.9417 103.961 16.857 104.322 16.6903C104.68 16.5211 104.983 16.2579 105.199 15.9298L105.902 16.3991C105.634 16.8366 105.242 17.1878 104.774 17.4094C104.272 17.6448 103.722 17.7631 103.166 17.7549C102.519 17.7665 101.879 17.6138 101.309 17.3117Z" fill="#E71583"/>
<path d="M109.672 14.1441L108.082 15.7036V17.7557H107.171V7.60938H108.082V14.4907L112.11 10.5621H113.239L110.352 13.5034L113.512 17.7557H112.396L109.672 14.1441Z" fill="#E71583"/>
<path d="M115.855 17.3036C115.331 17.0112 114.898 16.5806 114.602 16.0589C114.303 15.5066 114.146 14.8883 114.146 14.2601C114.146 13.6319 114.303 13.0136 114.602 12.4614C114.897 11.9405 115.33 11.5118 115.855 11.2231C116.405 10.9321 117.018 10.7799 117.64 10.7799C118.263 10.7799 118.876 10.9321 119.426 11.2231C119.949 11.5116 120.381 11.9415 120.672 12.4635C120.967 13.0171 121.122 13.6349 121.122 14.2623C121.122 14.8897 120.967 15.5074 120.672 16.061C120.38 16.5831 119.949 17.014 119.427 17.3058C118.878 17.601 118.265 17.7555 117.641 17.7555C117.018 17.7555 116.405 17.601 115.856 17.3058L115.855 17.3036ZM118.95 16.5998C119.337 16.3784 119.651 16.0503 119.856 15.6548C120.07 15.2211 120.182 14.7438 120.182 14.2601C120.182 13.7764 120.07 13.2992 119.856 12.8654C119.651 12.4699 119.337 12.1418 118.95 11.9204C118.548 11.7024 118.098 11.5881 117.64 11.5881C117.183 11.5881 116.733 11.7024 116.33 11.9204C115.943 12.1428 115.626 12.4704 115.418 12.8654C115.199 13.2979 115.086 13.7756 115.086 14.2601C115.086 14.7446 115.199 15.2224 115.418 15.6548C115.626 16.0498 115.943 16.3775 116.33 16.5998C116.733 16.8179 117.183 16.9321 117.64 16.9321C118.098 16.9321 118.548 16.8179 118.95 16.5998Z" fill="#E71583"/>
<path d="M129.366 10.7799V17.6893H128.465V16.4279C128.224 16.8423 127.871 17.1815 127.446 17.4068C126.989 17.6448 126.479 17.7646 125.963 17.755C125.054 17.755 124.337 17.5031 123.812 16.9994C123.287 16.4957 123.025 15.7577 123.025 14.7854V10.7799H123.964V14.6956C123.964 15.4256 124.145 15.9775 124.507 16.3512C124.869 16.725 125.384 16.9133 126.051 16.9162C126.787 16.9162 127.365 16.695 127.785 16.2527C128.206 15.8103 128.418 15.1949 128.422 14.4065V10.7799H129.366Z" fill="#E71583"/>
<path d="M135.707 17.2843C135.504 17.4448 135.266 17.5645 135.007 17.6353C134.727 17.7166 134.433 17.7575 134.138 17.7566C133.441 17.7566 132.904 17.5864 132.527 17.246C132.151 16.9056 131.962 16.4248 131.962 15.8036V11.7444H130.634V10.9806H131.962V9.5127H132.965V10.9806H135.226V11.7465H132.965V15.7547C132.965 16.1546 133.076 16.4588 133.298 16.6673C133.519 16.8758 133.837 16.9801 134.251 16.9801C134.456 16.9805 134.659 16.9503 134.852 16.8907C135.036 16.8358 135.206 16.7491 135.354 16.6354L135.707 17.2843Z" fill="#E71583"/>
<path d="M13.6475 0H12.3525C5.5304 0 0 5.5304 0 12.3525V13.6475C0 20.4696 5.5304 26 12.3525 26H13.6475C20.4696 26 26 20.4696 26 13.6475V12.3525C26 5.5304 20.4696 0 13.6475 0Z" fill="#131313"/>
<path d="M12.9987 8.24402C11.7382 8.24547 10.5297 8.73899 9.63835 9.61633C8.74701 10.4937 8.24562 11.6832 8.24414 12.9239V20.0217C8.26535 20.0371 8.28767 20.0503 8.30999 20.0646C8.73114 20.3327 9.17515 20.5642 9.63702 20.7567C9.78435 20.8182 9.93167 20.8753 10.0835 20.9269H10.098V20.9006L10.0868 18.7463L10.0645 18.7353V18.7057L10.0879 18.7166L10.079 16.6184C10.6762 17.0765 11.3759 17.3877 12.12 17.5259C12.864 17.6641 13.6309 17.6254 14.3566 17.4131C15.0824 17.2007 15.7462 16.8208 16.2927 16.3049C16.8392 15.789 17.2526 15.1522 17.4985 14.4473C17.7445 13.7424 17.8158 12.9899 17.7067 12.2524C17.5975 11.5149 17.3109 10.8138 16.8709 10.2073C16.4308 9.60078 15.8499 9.10651 15.1766 8.7656C14.5033 8.42469 13.757 8.247 12.9998 8.24731L12.9987 8.24402ZM12.9987 15.8131C12.4181 15.8131 11.8506 15.6437 11.3679 15.3262C10.8852 15.0087 10.509 14.5575 10.2868 14.0296C10.0646 13.5016 10.0065 12.9207 10.1198 12.3602C10.233 11.7998 10.5126 11.285 10.9231 10.8809C11.3336 10.4768 11.8566 10.2017 12.426 10.0902C12.9954 9.97871 13.5856 10.0359 14.122 10.2546C14.6583 10.4733 15.1168 10.8436 15.4393 11.3187C15.7619 11.7939 15.934 12.3525 15.934 12.9239C15.9331 13.6899 15.6236 14.4243 15.0733 14.9659C14.523 15.5076 13.7769 15.8123 12.9987 15.8131Z" fill="#E63081"/>
<path d="M18.556 19.5078H21.5512V21.5605H12.9958C12.7846 21.5605 12.5745 21.5528 12.3667 21.5384C12.2705 21.5307 12.1754 21.523 12.0792 21.5119H12.0571C11.3962 21.4413 10.746 21.2929 10.12 21.0697V21.0432L10.1112 18.8655V18.8357C11.5722 19.5616 13.2523 19.7137 14.82 19.2621C16.3878 18.8106 17.7293 17.788 18.5801 16.3962C19.431 15.0044 19.7292 13.3443 19.4161 11.7434C19.103 10.1426 18.2013 8.71713 16.8888 7.74823C15.5763 6.77934 13.9483 6.33735 12.3259 6.50945C10.7035 6.68154 9.20448 7.45522 8.12452 8.67789C7.04457 9.90056 6.46207 11.4834 6.49192 13.1144C6.52176 14.7453 7.16178 16.3058 8.28575 17.4882V20.1522C6.87668 19.22 5.77433 17.8925 5.11699 16.3363C4.51107 14.9061 4.30581 13.338 4.52321 11.8001C4.74061 10.2622 5.37248 8.81238 6.35109 7.60609C7.3297 6.39979 8.61818 5.48247 10.0784 4.95242C11.5387 4.42237 13.1157 4.29959 14.6404 4.59721C16.1651 4.89484 17.5801 5.60166 18.7337 6.64193C19.8873 7.6822 20.7361 9.01671 21.189 10.5024C21.6419 11.9882 21.6819 13.5691 21.3048 15.0759C20.9276 16.5826 20.1475 17.9583 19.0481 19.0556C18.8877 19.2137 18.7241 19.3641 18.556 19.5078Z" fill="#FDECF3"/>
</svg>
