<svg width="50" height="50" viewBox="0 0 50 50" fill="none" xmlns="http://www.w3.org/2000/svg">
<circle cx="25" cy="25" r="25" fill="#FFEBCE"/>
<g clip-path="url(#clip0_72_139)">
<path d="M31.3 18.71C30.91 18.32 30.28 18.32 29.89 18.71L25 23.59L20.11 18.7C19.72 18.31 19.09 18.31 18.7 18.7C18.31 19.09 18.31 19.72 18.7 20.11L23.59 25L18.7 29.89C18.31 30.28 18.31 30.91 18.7 31.3C19.09 31.69 19.72 31.69 20.11 31.3L25 26.41L29.89 31.3C30.28 31.69 30.91 31.69 31.3 31.3C31.69 30.91 31.69 30.28 31.3 29.89L26.41 25L31.3 20.11C31.68 19.73 31.68 19.09 31.3 18.71Z" fill="#111827"/>
</g>
<defs>
<clipPath id="clip0_72_139">
<rect width="24" height="24" fill="white" transform="translate(13 13)"/>
</clipPath>
</defs>
</svg>
