<svg width="56" height="56" viewBox="0 0 56 56" fill="none" xmlns="http://www.w3.org/2000/svg">
<rect width="56" height="56" rx="5" fill="#B2FCE4"/>
<path d="M44.4904 17.9199L33.2293 11.6432C29.928 9.80797 25.7831 12.1204 25.7831 15.791V16.4517C25.7819 16.7393 25.86 17.0217 26.0088 17.2678C26.1577 17.5139 26.3715 17.7141 26.6267 17.8465L28.7542 19.021C28.8923 19.1052 29.0502 19.1513 29.2119 19.1547C29.3735 19.1581 29.5332 19.1187 29.6747 19.0404C29.8163 18.9622 29.9346 18.8479 30.0177 18.7091C30.1008 18.5703 30.1458 18.412 30.1481 18.2502V16.6352C30.1574 16.4502 30.2132 16.2707 30.3103 16.113C30.4074 15.9554 30.5426 15.8248 30.7035 15.7333C30.8644 15.6418 31.0458 15.5924 31.2308 15.5897C31.4158 15.5869 31.5985 15.6309 31.7621 15.7175L41.5193 21.15C41.685 21.2345 41.8241 21.3632 41.9213 21.5219C42.0184 21.6806 42.0699 21.8631 42.0699 22.0492C42.0699 22.2354 42.0184 22.4179 41.9213 22.5766C41.8241 22.7353 41.685 22.864 41.5193 22.9485L31.7988 28.4176C31.6362 28.5108 31.4521 28.5599 31.2648 28.5602C31.0774 28.5605 30.8932 28.5119 30.7303 28.4193C30.5674 28.3267 30.4314 28.1932 30.3358 28.032C30.2401 27.8708 30.1881 27.6875 30.1848 27.5V26.6558C30.1848 22.9485 26.0398 20.6728 22.7385 22.5081L11.4774 28.7847C10.7286 29.1876 10.1028 29.786 9.66655 30.5164C9.23034 31.2467 9 32.0816 9 32.9324C9 33.7832 9.23034 34.6182 9.66655 35.3485C10.1028 36.0788 10.7286 36.6772 11.4774 37.0801L22.7385 43.3568C26.0398 45.192 30.1848 42.8796 30.1848 39.209V38.5483C30.1812 38.2617 30.1011 37.9812 29.9528 37.736C29.8044 37.4907 29.5932 37.2896 29.3411 37.1535L27.2136 35.979C27.0755 35.8948 26.9176 35.8487 26.756 35.8453C26.5943 35.8419 26.4346 35.8813 26.2931 35.9596C26.1516 36.0378 26.0333 36.1521 25.9501 36.2909C25.867 36.4297 25.822 36.588 25.8197 36.7498V38.3648C25.8104 38.5498 25.7546 38.7293 25.6575 38.887C25.5605 39.0446 25.4252 39.1752 25.2643 39.2667C25.1034 39.3582 24.9221 39.4076 24.7371 39.4103C24.552 39.4131 24.3693 39.3691 24.2058 39.2825L14.4486 33.85C14.2829 33.7655 14.1437 33.6368 14.0466 33.4781C13.9494 33.3194 13.898 33.1369 13.898 32.9508C13.898 32.7646 13.9494 32.5821 14.0466 32.4234C14.1437 32.2647 14.2829 32.136 14.4486 32.0515L24.2058 26.6191C24.3684 26.5259 24.5524 26.4768 24.7398 26.4765C24.9271 26.4762 25.1113 26.5248 25.2742 26.6174C25.4371 26.71 25.5731 26.8435 25.6688 27.0047C25.7644 27.1659 25.8164 27.3493 25.8197 27.5367V28.3809C25.8197 32.0882 29.9647 34.3639 33.266 32.5286L44.5271 26.252C45.2782 25.8446 45.9049 25.2409 46.3403 24.5054C46.7758 23.7698 47.0037 22.9299 47 22.075C46.9962 21.22 46.7608 20.3821 46.3189 19.6504C45.877 18.9188 45.2451 18.3207 44.4904 17.9199Z" fill="black"/>
</svg>
