<svg width="56" height="56" viewBox="0 0 56 56" fill="none" xmlns="http://www.w3.org/2000/svg">
<rect width="56" height="56" rx="5" fill="#003EE0"/>
<path d="M33.9098 42.5102V41.9807C32.9103 42.9867 31.7003 43.728 30.3852 44.2576C29.0174 44.7871 27.597 44.9989 26.124 44.9989C21.7576 45.0518 17.6017 43.2515 14.6557 40.0744C8.4481 33.2438 8.4481 22.7595 14.6557 15.9289C17.6017 12.6989 21.8102 10.8985 26.124 11.0044C27.597 11.0044 29.0174 11.2692 30.3852 11.7457C31.7003 12.2223 32.9103 13.0166 33.9098 13.9697V13.3872C33.8572 12.5929 34.4885 11.9046 35.2776 11.8516H43.5369C44.326 11.7987 45.0099 12.4341 45.0625 13.2284V42.4043C45.0625 42.7749 44.9047 43.1985 44.6416 43.4633C44.3786 43.781 44.0104 43.9398 43.5895 43.9398H35.488C35.0672 43.9398 34.6989 43.781 34.3833 43.4633C34.1203 43.3044 33.9098 42.9338 33.9098 42.5102ZM21.179 28.0016C21.1264 31.6023 23.9671 34.5146 27.5444 34.5676C29.2278 34.5676 30.8586 33.9321 32.0686 32.7672L32.1738 32.6613C34.6463 30.0667 34.6463 25.9366 32.1738 23.342C29.7013 20.8003 25.7032 20.7474 23.178 23.2361L23.0728 23.342C21.8103 24.5598 21.179 26.2543 21.179 28.0016Z" fill="#FCFCFC"/>
</svg>
