<svg width="56" height="56" viewBox="0 0 56 56" fill="none" xmlns="http://www.w3.org/2000/svg">
<path fill-rule="evenodd" clip-rule="evenodd" d="M34.4595 20.9602L55.3506 0.123144C55.6183 -0.144748 56.0863 0.0556082 55.9873 0.424804V55.6308C55.9873 55.8334 55.8186 56 55.6183 56H0.479301C0.0428507 56 -0.157377 55.4642 0.144089 55.1626L23.078 32.313V48.0916C23.078 48.2942 23.2782 48.4945 23.5122 48.4945H38.3088C43.6992 48.4945 46.4776 45.1785 46.4776 41.0251C46.4776 38.0783 44.7701 35.5659 42.3606 34.6272C41.9916 34.4944 41.9916 34.0261 42.3268 33.891C44.4033 32.9523 46.3449 30.8429 46.3449 27.9614C46.3449 24.31 43.1975 20.9602 37.8746 20.9602H34.4595ZM36.5698 31.8808H29.5056C29.2694 31.8808 29.1029 31.712 29.0714 31.4778V26.5207C29.0714 26.3181 29.2716 26.1178 29.5056 26.1178H36.5698C38.5788 26.1178 39.8499 27.3244 39.8499 28.9993C39.8499 30.7755 38.5788 31.8808 36.5698 31.8808ZM36.8038 43.3034H29.5056C29.2694 43.3034 29.1029 43.1368 29.0714 42.8689V37.4075C29.0714 37.2049 29.2716 37.0045 29.5056 37.0045H36.8038C39.1142 37.0045 40.3853 38.4115 40.3853 40.1539C40.3853 42.1643 39.0468 43.3034 36.8038 43.3034Z" fill="#34313F"/>
</svg>
