<svg width="56" height="56" viewBox="0 0 56 56" fill="none" xmlns="http://www.w3.org/2000/svg">
<rect width="56" height="56" rx="5" fill="#020202"/>
<path d="M22.8893 40.7189H29.9935C35.4831 40.7189 38.1875 38.9048 38.1875 35.4378C38.1875 32.0112 35.2812 30.1568 29.5495 30.1568H22.8893V40.7189ZM22.8893 15.2811V25.0773H29.1055C33.7878 25.0773 36.2096 23.3438 36.2096 20.159C36.2096 16.9742 33.707 15.2408 29.0651 15.2408L22.8893 15.2811ZM13 46V40.7189H17.1576V15.2408H13V10H29.6706C37.2995 10 41.9818 13.5476 41.9818 19.6753C41.9818 23.7066 39.6406 26.206 36.6536 27.3751C40.9323 28.5442 44 31.6081 44 35.7604C44 42.3315 38.9141 46 30.5586 46H13Z" fill="#FCFCFC"/>
</svg>
