<svg width="56" height="56" viewBox="0 0 56 56" fill="none" xmlns="http://www.w3.org/2000/svg">
<path d="M0 20.5882C0 9.21767 9.21767 0 20.5882 0H35.4118C46.7823 0 56 9.21767 56 20.5882V35.4118C56 46.7823 46.7823 56 35.4118 56H20.5882C9.21767 56 0 46.7823 0 35.4118V20.5882Z" fill="#E86723"/>
<circle cx="28.0001" cy="28" r="18.5294" fill="white"/>
<path fill-rule="evenodd" clip-rule="evenodd" d="M28.0001 35C31.8661 35 35.0001 31.866 35.0001 28C35.0001 24.134 31.8661 21 28.0001 21C24.1341 21 21.0001 24.134 21.0001 28C21.0001 31.866 24.1341 35 28.0001 35ZM28.0001 41.5882C35.5047 41.5882 41.5883 35.5046 41.5883 28C41.5883 20.4954 35.5047 14.4117 28.0001 14.4117C20.4955 14.4117 14.4119 20.4954 14.4119 28C14.4119 35.5046 20.4955 41.5882 28.0001 41.5882Z" fill="#054062"/>
</svg>
