<svg width="56" height="56" viewBox="0 0 56 56" fill="none" xmlns="http://www.w3.org/2000/svg">
<path d="M26.1067 13.1386C26.1461 7.84923 22.9905 3.07304 18.0994 1.02046C13.2478 -1.03212 7.60719 0.0731126 3.85996 3.78354C0.112728 7.49397 -1.03116 13.1386 0.980507 18.0332C2.99218 22.9278 7.76496 26.125 13.0505 26.125H26.1067V13.1386ZM29.8933 13.1386C29.8539 7.84923 33.0095 3.07304 37.9006 1.02046C42.7522 -1.03212 48.3928 0.0731126 52.14 3.78354C55.8873 7.49397 57.0312 13.1386 55.0195 18.0332C53.0078 22.9278 48.235 26.125 42.9495 26.125H29.8933V13.1386ZM29.8933 42.8614C29.8539 48.1508 33.0095 52.927 37.9006 54.9795C42.7917 57.0321 48.3928 55.9269 52.14 52.2165C55.8873 48.506 57.0312 42.8614 55.0195 37.9668C53.0078 33.0722 48.235 29.8749 42.9495 29.8749H29.8933V42.8614ZM13.09 52.177C18.2572 52.177 22.4383 48.0324 22.4778 42.8614V33.5459H13.09C7.96219 33.5459 3.78107 37.73 3.78107 42.8614C3.78107 47.9929 7.92274 52.177 13.09 52.177ZM26.1067 42.8614C26.1461 48.1508 22.9905 52.927 18.0994 54.9795C13.2083 57.0321 7.60719 55.9269 3.85996 52.2165C0.112728 48.506 -1.03116 42.8614 0.980507 37.9668C2.99218 33.0722 7.76496 29.8749 13.0505 29.8749H26.1067V42.8614Z" fill="#43B02A"/>
</svg>
