<svg width="56" height="35" viewBox="0 0 56 35" fill="none" xmlns="http://www.w3.org/2000/svg">
<path d="M51.7123 15.0719H41.9675L32.0928 26.6357L31.4431 33.7819H38.7192L40.1485 21.5684H51.0626L51.7123 15.0719Z" fill="#198E81"/>
<path d="M54.3109 0.259888L48.594 7.01627H55.2204L56 0.259888H54.3109Z" fill="#198E81"/>
<path fill-rule="evenodd" clip-rule="evenodd" d="M45.9954 2.4687C45.9954 3.08931 45.7394 3.65014 45.3273 4.05139C45.3033 4.09039 45.2763 4.12832 45.2464 4.1649L20.5761 34.3585C20.1979 34.8212 19.5084 34.8706 19.0682 34.4665L16.2834 31.91C16.2055 31.8385 16.1425 31.762 16.093 31.6823C15.6266 31.2773 15.3318 30.6801 15.3318 30.0139C15.3318 28.7941 16.3207 27.8051 17.5406 27.8051C18.3379 27.8051 19.0366 28.2276 19.4249 28.8609L41.6499 1.61738C41.7036 1.55165 41.7637 1.49404 41.8289 1.44483C42.198 0.740453 42.9362 0.259888 43.7865 0.259888C45.0064 0.259888 45.9954 1.24881 45.9954 2.4687Z" fill="#16C1F3"/>
<path fill-rule="evenodd" clip-rule="evenodd" d="M34.1533 3.7915C34.5654 3.39025 34.8213 2.82942 34.8213 2.20882C34.8213 0.988921 33.8324 0 32.6125 0C31.7621 0 31.024 0.480565 30.6548 1.18494C30.5897 1.23415 30.5295 1.29176 30.4759 1.35749L8.17385 28.6955L4.17478 24.5884C3.80846 23.8753 3.06561 23.3875 2.20882 23.3875C0.988921 23.3875 0 24.3764 0 25.5963C0 26.0742 0.151765 26.5166 0.409727 26.878L0.389791 26.8956L0.557493 27.0633C0.615269 27.1283 0.676823 27.1898 0.741811 27.2476L4.9229 31.4287C4.97179 31.5061 5.03357 31.5805 5.10937 31.6501L7.89418 34.2066C8.33441 34.6108 9.02393 34.5613 9.40205 34.0986L34.0724 3.90501C34.1023 3.86843 34.1292 3.83051 34.1533 3.7915Z" fill="#16C1F3"/>
</svg>
