<svg width="57" height="56" viewBox="0 0 57 56" fill="none" xmlns="http://www.w3.org/2000/svg">
<path d="M8.04429 30.5656C7.99464 29.7014 8.04945 28.8344 8.20754 27.9833C8.35152 27.1631 8.60093 26.365 8.94957 25.6088L9.08314 25.3565C9.44912 24.6539 9.90292 24.0006 10.4336 23.4124C11.9202 21.644 13.9684 20.4391 16.2363 19.9991V19.9991C17.5417 19.7468 18.7844 19.2392 19.8929 18.5052C21.0015 17.7713 21.9541 16.8255 22.6961 15.7223C23.438 14.619 23.9546 13.38 24.2163 12.0765C24.4779 10.773 24.4794 9.43063 24.2206 8.12654V8.12654C24.0553 7.29186 23.7912 6.47982 23.434 5.70752C22.462 3.68734 20.844 2.04902 18.8361 1.0518C16.8282 0.0545766 14.5451 -0.24459 12.3481 0.201637L7.2429 1.18112L3.01332 2.0122L2.44937 2.11608L1.2176 2.35353C1.05383 2.38362 0.897749 2.44622 0.758571 2.53763C0.619392 2.62904 0.499936 2.7474 0.407254 2.88573C0.314571 3.02406 0.250541 3.17956 0.218942 3.34305C0.187343 3.50653 0.188816 3.67469 0.223275 3.83759V3.83759L0.80206 6.80572L1.41053 10.0261L1.90027 12.5045L3.01332 18.1885L3.90375 22.7891L4.58642 26.3063L5.07616 28.8144L5.56591 31.3373C6.34634 30.9913 7.16257 30.7325 7.99977 30.5656H8.04429Z" fill="#5A48E0"/>
<path d="M47.9802 25.3714C48.0299 26.2356 47.9751 27.1026 47.817 27.9536C47.6657 28.7757 47.4062 29.5742 47.0453 30.3282L46.9117 30.5804C46.5688 31.2791 46.1401 31.9322 45.6354 32.5246C44.9598 33.3352 44.1581 34.0318 43.2609 34.5874C42.2101 35.2461 41.0486 35.7087 39.8327 35.9528V35.9528C38.5264 36.2031 37.2826 36.7096 36.173 37.4431C35.0635 38.1765 34.11 39.1224 33.3678 40.2261C32.6256 41.3298 32.1092 42.5695 31.8484 43.8738C31.5876 45.178 31.5876 46.521 31.8484 47.8253V47.8253C32.1025 49.1297 32.6113 50.3713 33.3457 51.4788C34.0802 52.5864 35.0259 53.5383 36.1287 54.2799C37.2315 55.0215 38.4697 55.5384 39.7725 55.8008C41.0753 56.0633 42.417 56.0663 43.721 55.8095L48.8261 54.8152L53.0557 53.999L53.6197 53.8951L54.8514 53.6428C55.0152 53.6127 55.1713 53.5501 55.3105 53.4587C55.4496 53.3673 55.5691 53.2489 55.6618 53.1106C55.7545 52.9723 55.8185 52.8168 55.8501 52.6533C55.8817 52.4898 55.8802 52.3216 55.8458 52.1587V52.1587L55.267 49.1906L54.6585 45.9999L54.1688 43.5066L53.0706 37.8375L52.1801 33.2369L51.4529 29.69L50.9632 27.1819L50.5031 24.6145C49.7222 24.9556 48.9059 25.2094 48.0693 25.3714H47.9802Z" fill="#5A48E0"/>
<path d="M52.15 0.156828L49.1819 0.735613L45.9466 1.34408L43.4682 1.83382L37.7843 2.97655L33.1985 3.86699L29.7258 4.46061L27.2177 4.95036L24.6948 5.4401C25.0388 6.22129 25.2975 7.03729 25.4665 7.87396C25.4665 7.87396 25.4665 7.87396 25.4665 7.87396C26.3307 7.82431 27.1978 7.87912 28.0488 8.03721C28.8709 8.1885 29.6693 8.448 30.4233 8.80892L30.6756 8.94249C31.3685 9.34394 32.0069 9.83273 32.5752 10.3969C33.3859 11.0724 34.0824 11.8742 34.6381 12.7714C35.2921 13.8229 35.7497 14.9845 35.9886 16.1996V16.1996C36.2426 17.504 36.7514 18.7456 37.4859 19.8531C38.2203 20.9607 39.166 21.9126 40.2688 22.6542C41.3716 23.3958 42.6098 23.9126 43.9126 24.1751C45.2154 24.4376 46.5571 24.4406 47.8611 24.1838V24.1838C48.6957 24.0185 49.5078 23.7544 50.2801 23.3973C52.2992 22.4326 53.9411 20.8252 54.9482 18.8269C55.9554 16.8287 56.2709 14.5527 55.8453 12.3558L54.8065 7.19129L53.9754 2.97655L53.8715 2.41261L53.6341 1.16599C53.5659 0.838177 53.3729 0.549689 53.0961 0.361406C52.8192 0.173122 52.48 0.0997698 52.15 0.156828V0.156828Z" fill="#5A48E0"/>
<path d="M30.602 47.9293C29.7378 47.9864 28.8699 47.9315 28.0197 47.766C27.1976 47.6147 26.3992 47.3552 25.6452 46.9943L25.3929 46.8756C24.697 46.5221 24.0446 46.0888 23.4488 45.5844C22.6381 44.9089 21.9416 44.1071 21.386 43.2099C20.7319 42.1584 20.2743 40.9968 20.0355 39.7817C19.7833 38.4764 19.2756 37.2337 18.5416 36.1251C17.8077 35.0165 16.8619 34.0639 15.7587 33.322C14.6554 32.5801 13.4165 32.0634 12.1129 31.8018C10.8094 31.5402 9.46705 31.5387 8.16296 31.7975V31.7975C6.85892 32.0514 5.61784 32.5603 4.51094 33.2949C3.40403 34.0296 2.45309 34.9756 1.71265 36.0787C0.972222 37.1818 0.456878 38.4202 0.19619 39.7229C-0.0644992 41.0256 -0.0654021 42.3669 0.193533 43.67L1.17302 48.7752L2.00409 53.0196L2.10798 53.5687L2.34543 54.8153C2.37724 54.9777 2.44107 55.1322 2.53322 55.2697C2.62536 55.4072 2.74397 55.525 2.88212 55.6162C3.02026 55.7073 3.17518 55.7701 3.33784 55.8008C3.50049 55.8314 3.66763 55.8294 3.82949 55.7948V55.7948L6.79762 55.2308L10.0032 54.6075L12.4816 54.1326L18.1656 53.0344L22.7661 52.1292L26.2834 51.4465L28.7915 50.9567L31.3144 50.467C30.9685 49.6917 30.7097 48.8804 30.5426 48.048L30.602 47.9293Z" fill="#5A48E0"/>
</svg>
