<svg width="56" height="56" viewBox="0 0 56 56" fill="none" xmlns="http://www.w3.org/2000/svg">
<path d="M46.685 7.6034e-05H9.35191C6.87224 0.00204952 4.49469 0.987974 2.74129 2.74138C0.987895 4.49478 0.00197348 6.87234 0 9.35202V46.648C0.00197348 49.1277 0.987895 51.5053 2.74129 53.2587C4.49469 55.0121 6.87224 55.998 9.35191 56H46.6478C49.1275 55.998 51.505 55.0121 53.2584 53.2587C55.0118 51.5053 55.9977 49.1277 55.9997 46.648V9.35202C56.0096 8.1243 55.7756 6.90682 55.3115 5.77016C54.8474 4.63351 54.1622 3.6003 53.2958 2.73041C52.4294 1.86051 51.3989 1.17124 50.2641 0.702561C49.1293 0.233879 47.9128 -0.00489444 46.685 7.6034e-05ZM45.8654 42.8849C45.8634 43.665 45.5526 44.4125 45.0011 44.9641C44.4495 45.5156 43.702 45.8264 42.9219 45.8284H13.1523C12.3722 45.8264 11.6247 45.5156 11.0731 44.9641C10.5216 44.4125 10.2108 43.665 10.2089 42.8849V13.1524C10.2108 12.3724 10.5216 11.6248 11.0731 11.0733C11.6247 10.5217 12.3722 10.2109 13.1523 10.209H42.8847C43.6647 10.2109 44.4122 10.5217 44.9638 11.0733C45.5154 11.6248 45.8261 12.3724 45.8281 13.1524V42.8849H45.8654ZM22.0571 35.6195C21.8319 35.6199 21.6088 35.5759 21.4006 35.49C21.1925 35.404 21.0033 35.2778 20.8441 35.1186C20.6848 34.9593 20.5586 34.7702 20.4727 34.562C20.3867 34.3538 20.3427 34.1308 20.3432 33.9055V22.0573C20.3427 21.8321 20.3867 21.609 20.4727 21.4008C20.5586 21.1926 20.6848 21.0035 20.8441 20.8442C21.0033 20.685 21.1925 20.5588 21.4006 20.4728C21.6088 20.3869 21.8319 20.3429 22.0571 20.3434H33.9426C34.1678 20.3429 34.3909 20.3869 34.5991 20.4728C34.8072 20.5588 34.9964 20.685 35.1556 20.8442C35.3148 21.0035 35.4411 21.1926 35.527 21.4008C35.613 21.609 35.657 21.8321 35.6565 22.0573V33.9428C35.657 34.168 35.613 34.3911 35.527 34.5993C35.4411 34.8074 35.3148 34.9966 35.1556 35.1558C34.9964 35.3151 34.8072 35.4413 34.5991 35.5272C34.3909 35.6132 34.1678 35.6572 33.9426 35.6567L22.0571 35.6195Z" fill="black"/>
</svg>
