<svg width="22" height="22" viewBox="0 0 22 22" fill="none" xmlns="http://www.w3.org/2000/svg">
<path d="M13.374 2.37421C13.0257 2.02587 12.5582 1.83337 12.0723 1.83337H5.49984C4.4915 1.83337 3.6665 2.65837 3.6665 3.66671V18.3334C3.6665 19.3417 4.48234 20.1667 5.49067 20.1667H16.4998C17.5082 20.1667 18.3332 19.3417 18.3332 18.3334V8.09421C18.3332 7.60837 18.1407 7.14087 17.7923 6.80171L13.374 2.37421ZM13.7498 16.5H8.24984C7.74567 16.5 7.33317 16.0875 7.33317 15.5834C7.33317 15.0792 7.74567 14.6667 8.24984 14.6667H13.7498C14.254 14.6667 14.6665 15.0792 14.6665 15.5834C14.6665 16.0875 14.254 16.5 13.7498 16.5ZM13.7498 12.8334H8.24984C7.74567 12.8334 7.33317 12.4209 7.33317 11.9167C7.33317 11.4125 7.74567 11 8.24984 11H13.7498C14.254 11 14.6665 11.4125 14.6665 11.9167C14.6665 12.4209 14.254 12.8334 13.7498 12.8334ZM11.9165 7.33337V3.20837L16.9582 8.25004H12.8332C12.329 8.25004 11.9165 7.83754 11.9165 7.33337Z" fill="#6B7280"/>
</svg>
