<svg width="22" height="22" viewBox="0 0 22 22" fill="none" xmlns="http://www.w3.org/2000/svg">
<path d="M15.1252 10.9999C16.3902 10.9999 17.4077 9.97325 17.4077 8.70825C17.4077 7.44325 16.3902 6.41659 15.1252 6.41659C13.8602 6.41659 12.8335 7.44325 12.8335 8.70825C12.8335 9.97325 13.8602 10.9999 15.1252 10.9999ZM8.25016 10.0833C9.77183 10.0833 10.991 8.85492 10.991 7.33325C10.991 5.81159 9.77183 4.58325 8.25016 4.58325C6.7285 4.58325 5.50016 5.81159 5.50016 7.33325C5.50016 8.85492 6.7285 10.0833 8.25016 10.0833ZM15.1252 12.8333C13.4477 12.8333 10.0835 13.6766 10.0835 15.3541V16.4999C10.0835 17.0041 10.496 17.4166 11.0002 17.4166H19.2502C19.7543 17.4166 20.1668 17.0041 20.1668 16.4999V15.3541C20.1668 13.6766 16.8027 12.8333 15.1252 12.8333ZM8.25016 11.9166C6.11433 11.9166 1.8335 12.9891 1.8335 15.1249V16.4999C1.8335 17.0041 2.246 17.4166 2.75016 17.4166H8.25016V15.3541C8.25016 14.5749 8.55266 13.2091 10.4227 12.1733C9.62516 12.0083 8.85516 11.9166 8.25016 11.9166Z" fill="#E72E80"/>
</svg>
