<svg width="22" height="22" viewBox="0 0 22 22" fill="none" xmlns="http://www.w3.org/2000/svg">
<path d="M5.9585 19.25H2.75016C2.246 19.25 1.8335 18.8375 1.8335 18.3333V9.16667C1.8335 8.6625 2.246 8.25 2.75016 8.25H5.9585C6.46266 8.25 6.87516 8.6625 6.87516 9.16667V18.3333C6.87516 18.8375 6.46266 19.25 5.9585 19.25ZM12.6043 2.75H9.396C8.89183 2.75 8.47933 3.1625 8.47933 3.66667V18.3333C8.47933 18.8375 8.89183 19.25 9.396 19.25H12.6043C13.1085 19.25 13.521 18.8375 13.521 18.3333V3.66667C13.521 3.1625 13.1085 2.75 12.6043 2.75ZM19.2502 10.0833H16.0418C15.5377 10.0833 15.1252 10.4958 15.1252 11V18.3333C15.1252 18.8375 15.5377 19.25 16.0418 19.25H19.2502C19.7543 19.25 20.1668 18.8375 20.1668 18.3333V11C20.1668 10.4958 19.7543 10.0833 19.2502 10.0833Z" fill="#E72E80"/>
</svg>
