<svg width="22" height="22" viewBox="0 0 22 22" fill="none" xmlns="http://www.w3.org/2000/svg">
<path d="M19.25 2.02589C19.1308 2.02589 19.0117 2.07172 18.9292 2.16339L18.205 2.88756C18.0217 3.07089 17.7375 3.07089 17.5542 2.88756L16.83 2.16339C16.6467 1.98006 16.3625 1.98006 16.1792 2.16339L15.455 2.88756C15.2717 3.07089 14.9875 3.07089 14.8042 2.88756L14.08 2.16339C13.8967 1.98006 13.6125 1.98006 13.4292 2.16339L12.705 2.88756C12.5217 3.07089 12.2375 3.07089 12.0542 2.88756L11.33 2.16339C11.1467 1.98006 10.8625 1.98006 10.6792 2.16339L9.955 2.88756C9.77167 3.07089 9.4875 3.07089 9.30417 2.88756L8.57083 2.15422C8.3875 1.97089 8.10333 1.97089 7.92 2.15422L7.19583 2.88756C7.0125 3.07089 6.72833 3.07089 6.545 2.88756L5.82083 2.15422C5.6375 1.97089 5.35333 1.97089 5.17 2.15422L4.44583 2.88756C4.2625 3.07089 3.97833 3.07089 3.795 2.88756L3.07083 2.15422C2.98833 2.07172 2.86917 2.02589 2.75 2.02589V19.9834C2.86917 19.9834 2.98833 19.9376 3.07083 19.8459L3.795 19.1217C3.97833 18.9384 4.2625 18.9384 4.44583 19.1217L5.17 19.8459C5.35333 20.0292 5.6375 20.0292 5.82083 19.8459L6.545 19.1217C6.72833 18.9384 7.0125 18.9384 7.19583 19.1217L7.92 19.8459C8.10333 20.0292 8.3875 20.0292 8.57083 19.8459L9.295 19.1217C9.47833 18.9384 9.7625 18.9384 9.94583 19.1217L10.67 19.8459C10.8533 20.0292 11.1375 20.0292 11.3208 19.8459L12.045 19.1217C12.2283 18.9384 12.5125 18.9384 12.6958 19.1217L13.42 19.8459C13.6033 20.0292 13.8875 20.0292 14.0708 19.8459L14.795 19.1217C14.9783 18.9384 15.2625 18.9384 15.4458 19.1217L16.17 19.8459C16.3533 20.0292 16.6375 20.0292 16.8208 19.8459L17.545 19.1217C17.7283 18.9384 18.0125 18.9384 18.1958 19.1217L18.92 19.8459C19.0117 19.9376 19.1308 19.9834 19.2408 19.9834V2.02589H19.25ZM15.5833 15.5834H6.41667C5.9125 15.5834 5.5 15.1709 5.5 14.6667C5.5 14.1626 5.9125 13.7501 6.41667 13.7501H15.5833C16.0875 13.7501 16.5 14.1626 16.5 14.6667C16.5 15.1709 16.0875 15.5834 15.5833 15.5834ZM15.5833 11.9167H6.41667C5.9125 11.9167 5.5 11.5042 5.5 11.0001C5.5 10.4959 5.9125 10.0834 6.41667 10.0834H15.5833C16.0875 10.0834 16.5 10.4959 16.5 11.0001C16.5 11.5042 16.0875 11.9167 15.5833 11.9167ZM15.5833 8.25006H6.41667C5.9125 8.25006 5.5 7.83756 5.5 7.33339C5.5 6.82922 5.9125 6.41672 6.41667 6.41672H15.5833C16.0875 6.41672 16.5 6.82922 16.5 7.33339C16.5 7.83756 16.0875 8.25006 15.5833 8.25006Z" fill="#E72E80"/>
</svg>
