<svg width="22" height="22" viewBox="0 0 22 22" fill="none" xmlns="http://www.w3.org/2000/svg">
<path d="M13.4292 4.56503L8.84583 2.96087C8.46083 2.82337 8.03917 2.82337 7.65417 2.9517L3.99667 4.18003C3.25417 4.4367 2.75 5.13337 2.75 5.9217V16.7842C2.75 18.0767 4.0425 18.9567 5.24333 18.4892L7.92917 17.4442C8.13083 17.3617 8.36 17.3617 8.56167 17.435L13.145 19.0392C13.53 19.1767 13.9517 19.1767 14.3367 19.0484L17.9942 17.82C18.7367 17.5725 19.2408 16.8667 19.2408 16.0784V5.21587C19.2408 3.92337 17.9483 3.04337 16.7475 3.51087L14.0617 4.55587C13.86 4.6292 13.64 4.63837 13.4292 4.56503V4.56503ZM13.75 17.3159L8.25 15.3817V4.6842L13.75 6.61837V17.3159Z" fill="#6B7280"/>
</svg>
