<svg width="19" height="18" viewBox="0 0 19 18" fill="none" xmlns="http://www.w3.org/2000/svg">
<path d="M9.02622 8.04721V17.278C9.02622 17.5187 9.02221 17.7594 9.02221 18.0001C8.89784 17.9459 8.77549 17.8918 8.65113 17.8376C7.86887 17.4926 7.08458 17.1476 6.30231 16.8026C5.35558 16.3854 4.40679 15.9682 3.46006 15.551C2.6417 15.1899 1.82532 14.8288 1.00692 14.4678C0.669942 14.3194 0.340996 14.1569 0 14.0145V4.78559C0 4.54489 0.00200566 4.30419 0.00401166 4.06348C0.130378 4.11964 0.256745 4.1758 0.383116 4.22996C1.1674 4.57697 1.95367 4.92197 2.73795 5.26696C3.46807 5.58789 4.19818 5.91084 4.92833 6.23177C5.14496 6.32805 5.36157 6.42233 5.58021 6.51861C6.40058 6.87966 7.22298 7.2427 8.04336 7.60376C8.37031 7.74818 8.69927 7.8926 9.02622 8.037V8.04721Z" fill="#E72E80"/>
<path d="M9.83508 8.03904C10.0176 7.95881 10.1981 7.87858 10.3787 7.79834C11.1228 7.46939 11.871 7.14243 12.6152 6.81347C13.1367 6.58279 13.6602 6.35415 14.1817 6.12348V8.50839C14.1817 8.71901 14.3663 8.91959 14.5829 8.90958C14.7995 8.89956 14.9841 8.73306 14.9841 8.50839V5.77045C15.1245 5.70225 15.289 5.63405 15.4434 5.56786C15.5637 5.51571 15.6821 5.46156 15.8004 5.4094C16.6188 5.04835 17.4372 4.68729 18.2556 4.32825C18.2616 4.32624 18.2656 4.32223 18.2736 4.32022C18.4682 4.23397 18.6748 4.14772 18.8553 4.06348V12.9473C18.8553 13.3063 18.8513 13.6674 18.8533 14.0264C18.5946 14.1407 18.3378 14.2551 18.0791 14.3694C17.2968 14.7144 16.5125 15.0594 15.7303 15.4044C14.7835 15.8216 13.8368 16.2388 12.888 16.6561C12.0696 17.0171 11.2513 17.3782 10.4329 17.7392C10.2323 17.8275 10.0297 17.9117 9.8291 17.9979V9.1182V8.97177C9.83111 8.66087 9.83512 8.34997 9.83311 8.03905L9.83508 8.03904Z" fill="#E72E80"/>
<path d="M9.41898 7.34361C9.16223 7.23128 8.90751 7.11896 8.65076 7.00463C7.86849 6.65962 7.0842 6.31464 6.30194 5.96961C5.3552 5.55239 4.40641 5.13518 3.45968 4.71797C2.64132 4.35692 1.82292 3.99585 1.00255 3.63483C0.878187 3.57867 0.75182 3.52451 0.627441 3.46834C0.629447 3.46834 0.631453 3.46834 0.631453 3.46634C0.647499 3.46032 0.66154 3.4543 0.677587 3.44828C1.46187 3.13938 2.24414 2.8285 3.02843 2.5196C3.58806 2.29895 4.14769 2.07832 4.70531 1.85767C5.00819 1.98203 5.31307 2.10639 5.61595 2.23277C6.40024 2.55571 7.18251 2.87666 7.96679 3.19957C8.91155 3.58869 9.8563 3.97784 10.801 4.36494C11.6194 4.70192 12.4398 5.0389 13.2602 5.37586C13.3685 5.41999 13.4768 5.46612 13.5831 5.51226C13.3504 5.61456 13.1177 5.71686 12.8871 5.81915C12.0687 6.18021 11.2503 6.54127 10.4319 6.90229C10.0969 7.05073 9.75594 7.18913 9.42099 7.34357L9.41898 7.34361Z" fill="#E72E80"/>
<path d="M18.2226 3.47204C18.1744 3.4921 18.1263 3.51416 18.0781 3.53623C17.2959 3.88123 16.5116 4.22622 15.7293 4.57125C15.3522 4.73773 14.9751 4.90421 14.598 5.06867C14.2992 4.94632 14.0023 4.82396 13.7034 4.7016C12.9191 4.37866 12.1369 4.05574 11.3526 3.7348C10.4078 3.34569 9.46306 2.95653 8.51834 2.56943C7.69796 2.23245 6.87957 1.89548 6.05919 1.55851C5.96491 1.5204 5.87064 1.48029 5.77637 1.44017C5.80445 1.42813 5.83253 1.41811 5.86061 1.40607C6.68301 1.08112 7.50339 0.75819 8.32578 0.433259C8.59456 0.326952 8.86333 0.22064 9.13211 0.114333C9.2304 0.0762206 9.33069 0.0401184 9.42898 0C9.71782 0.114333 10.0087 0.228665 10.2975 0.342998C11.0818 0.651897 11.8641 0.960803 12.6484 1.27169C13.5931 1.64477 14.5379 2.01786 15.4826 2.39095C16.305 2.7159 17.1254 3.03883 17.9477 3.36376C18.04 3.39586 18.1323 3.43397 18.2225 3.47208L18.2226 3.47204Z" fill="#E72E80"/>
</svg>
