<svg width="22" height="22" viewBox="0 0 22 22" fill="none" xmlns="http://www.w3.org/2000/svg">
<path d="M17.4167 2.75008H13.585C13.2 1.68675 12.1917 0.916748 11 0.916748C9.80833 0.916748 8.8 1.68675 8.415 2.75008H4.58333C3.575 2.75008 2.75 3.57508 2.75 4.58341V17.4167C2.75 18.4251 3.575 19.2501 4.58333 19.2501H17.4167C18.425 19.2501 19.25 18.4251 19.25 17.4167V4.58341C19.25 3.57508 18.425 2.75008 17.4167 2.75008ZM11 2.75008C11.5042 2.75008 11.9167 3.16258 11.9167 3.66675C11.9167 4.17091 11.5042 4.58341 11 4.58341C10.4958 4.58341 10.0833 4.17091 10.0833 3.66675C10.0833 3.16258 10.4958 2.75008 11 2.75008ZM14.6667 13.7501H11V16.5001L6.41667 11.9167L11 7.33341V10.0834H14.6667V13.7501Z" fill="#E72E80"/>
</svg>
