<svg width="22" height="22" viewBox="0 0 22 22" fill="none" xmlns="http://www.w3.org/2000/svg">
<path d="M17.4167 2.74996H13.585C13.2 1.68663 12.1917 0.916626 11 0.916626C9.80833 0.916626 8.8 1.68663 8.415 2.74996H4.58333C3.575 2.74996 2.75 3.57496 2.75 4.58329V17.4166C2.75 18.425 3.575 19.25 4.58333 19.25H17.4167C18.425 19.25 19.25 18.425 19.25 17.4166V4.58329C19.25 3.57496 18.425 2.74996 17.4167 2.74996ZM11 2.74996C11.5042 2.74996 11.9167 3.16246 11.9167 3.66663C11.9167 4.17079 11.5042 4.58329 11 4.58329C10.4958 4.58329 10.0833 4.17079 10.0833 3.66663C10.0833 3.16246 10.4958 2.74996 11 2.74996ZM14.6667 13.75H11V16.5L6.41667 11.9166L11 7.33329V10.0833H14.6667V13.75Z" fill="#E72E80"/>
</svg>
