<svg width="22" height="22" viewBox="0 0 22 22" fill="none" xmlns="http://www.w3.org/2000/svg">
<path d="M17.8109 11.8984C17.8476 11.605 17.8751 11.3117 17.8751 11C17.8751 10.6884 17.8476 10.395 17.8109 10.1017L19.7451 8.58921C19.9193 8.45171 19.9651 8.20421 19.8551 8.00254L18.0218 4.83087C17.9118 4.62921 17.6643 4.55587 17.4626 4.62921L15.1801 5.54587C14.7034 5.17921 14.1901 4.87671 13.6309 4.64754L13.2826 2.21837C13.2551 1.99837 13.0626 1.83337 12.8334 1.83337H9.16676C8.9376 1.83337 8.7451 1.99837 8.7176 2.21837L8.36926 4.64754C7.8101 4.87671 7.29676 5.18837 6.8201 5.54587L4.5376 4.62921C4.32676 4.54671 4.08843 4.62921 3.97843 4.83087L2.1451 8.00254C2.02593 8.20421 2.08093 8.45171 2.2551 8.58921L4.18926 10.1017C4.1526 10.395 4.1251 10.6975 4.1251 11C4.1251 11.3025 4.1526 11.605 4.18926 11.8984L2.2551 13.4109C2.08093 13.5484 2.0351 13.7959 2.1451 13.9975L3.97843 17.1692C4.08843 17.3709 4.33593 17.4442 4.5376 17.3709L6.8201 16.4542C7.29676 16.8209 7.8101 17.1234 8.36926 17.3525L8.7176 19.7817C8.7451 20.0017 8.9376 20.1667 9.16676 20.1667H12.8334C13.0626 20.1667 13.2551 20.0017 13.2826 19.7817L13.6309 17.3525C14.1901 17.1234 14.7034 16.8117 15.1801 16.4542L17.4626 17.3709C17.6734 17.4534 17.9118 17.3709 18.0218 17.1692L19.8551 13.9975C19.9651 13.7959 19.9193 13.5484 19.7451 13.4109L17.8109 11.8984V11.8984ZM11.0001 14.2084C9.23093 14.2084 7.79176 12.7692 7.79176 11C7.79176 9.23087 9.23093 7.79171 11.0001 7.79171C12.7693 7.79171 14.2084 9.23087 14.2084 11C14.2084 12.7692 12.7693 14.2084 11.0001 14.2084Z" fill="#E72E80"/>
</svg>
