<svg width="22" height="22" viewBox="0 0 22 22" fill="none" xmlns="http://www.w3.org/2000/svg">
<path d="M18.3332 7.33329H15.5832V3.66663H2.74984C1.7415 3.66663 0.916504 4.49163 0.916504 5.49996V15.5833H2.74984C2.74984 17.105 3.97817 18.3333 5.49984 18.3333C7.0215 18.3333 8.24984 17.105 8.24984 15.5833H13.7498C13.7498 17.105 14.9782 18.3333 16.4998 18.3333C18.0215 18.3333 19.2498 17.105 19.2498 15.5833H21.0832V11L18.3332 7.33329ZM5.49984 16.9583C4.739 16.9583 4.12484 16.3441 4.12484 15.5833C4.12484 14.8225 4.739 14.2083 5.49984 14.2083C6.26067 14.2083 6.87484 14.8225 6.87484 15.5833C6.87484 16.3441 6.26067 16.9583 5.49984 16.9583ZM17.8748 8.70829L19.6715 11H15.5832V8.70829H17.8748ZM16.4998 16.9583C15.739 16.9583 15.1248 16.3441 15.1248 15.5833C15.1248 14.8225 15.739 14.2083 16.4998 14.2083C17.2607 14.2083 17.8748 14.8225 17.8748 15.5833C17.8748 16.3441 17.2607 16.9583 16.4998 16.9583Z" fill="#E72E80"/>
</svg>
