<svg width="22" height="22" viewBox="0 0 22 22" fill="none" xmlns="http://www.w3.org/2000/svg">
<path fill-rule="evenodd" clip-rule="evenodd" d="M5.4998 2.19995C4.91633 2.19995 4.35675 2.43174 3.94417 2.84432C3.53159 3.2569 3.2998 3.81647 3.2998 4.39995V19.7999L7.1498 17.5999L10.9998 19.7999L14.8498 17.5999L18.6998 19.7999V4.39995C18.6998 3.81647 18.468 3.2569 18.0554 2.84432C17.6429 2.43174 17.0833 2.19995 16.4998 2.19995H5.4998ZM8.2498 5.49995C7.8122 5.49995 7.39251 5.67379 7.08308 5.98322C6.77364 6.29266 6.5998 6.71234 6.5998 7.14995C6.5998 7.58756 6.77364 8.00724 7.08308 8.31668C7.39251 8.62611 7.8122 8.79995 8.2498 8.79995C8.68741 8.79995 9.1071 8.62611 9.41653 8.31668C9.72597 8.00724 9.8998 7.58756 9.8998 7.14995C9.8998 6.71234 9.72597 6.29266 9.41653 5.98322C9.1071 5.67379 8.68741 5.49995 8.2498 5.49995V5.49995ZM15.0775 5.82225C14.8712 5.61603 14.5915 5.50019 14.2998 5.50019C14.0081 5.50019 13.7284 5.61603 13.5221 5.82225L6.92211 12.4223C6.81704 12.5237 6.73324 12.6451 6.67559 12.7793C6.61794 12.9135 6.5876 13.0579 6.58633 13.2039C6.58506 13.35 6.61289 13.4948 6.6682 13.63C6.72351 13.7652 6.80519 13.888 6.90847 13.9913C7.01175 14.0946 7.13457 14.1762 7.26976 14.2316C7.40494 14.2869 7.54979 14.3147 7.69585 14.3134C7.8419 14.3122 7.98625 14.2818 8.12045 14.2242C8.25465 14.1665 8.37603 14.0827 8.4775 13.9776L15.0775 7.37765C15.2837 7.17137 15.3996 6.89163 15.3996 6.59995C15.3996 6.30827 15.2837 6.02853 15.0775 5.82225V5.82225ZM13.7498 11C13.3122 11 12.8925 11.1738 12.5831 11.4832C12.2736 11.7927 12.0998 12.2123 12.0998 12.65C12.0998 13.0876 12.2736 13.5072 12.5831 13.8167C12.8925 14.1261 13.3122 14.3 13.7498 14.3C14.1874 14.3 14.6071 14.1261 14.9165 13.8167C15.226 13.5072 15.3998 13.0876 15.3998 12.65C15.3998 12.2123 15.226 11.7927 14.9165 11.4832C14.6071 11.1738 14.1874 11 13.7498 11V11Z" fill="#E72E80"/>
</svg>
