<svg width="22" height="22" viewBox="0 0 22 22" fill="none" xmlns="http://www.w3.org/2000/svg">
<path d="M15.1252 11C16.3902 11 17.4077 9.97337 17.4077 8.70837C17.4077 7.44337 16.3902 6.41671 15.1252 6.41671C13.8602 6.41671 12.8335 7.44337 12.8335 8.70837C12.8335 9.97337 13.8602 11 15.1252 11ZM8.25016 10.0834C9.77183 10.0834 10.991 8.85504 10.991 7.33337C10.991 5.81171 9.77183 4.58337 8.25016 4.58337C6.7285 4.58337 5.50016 5.81171 5.50016 7.33337C5.50016 8.85504 6.7285 10.0834 8.25016 10.0834ZM15.1252 12.8334C13.4477 12.8334 10.0835 13.6767 10.0835 15.3542V16.5C10.0835 17.0042 10.496 17.4167 11.0002 17.4167H19.2502C19.7543 17.4167 20.1668 17.0042 20.1668 16.5V15.3542C20.1668 13.6767 16.8027 12.8334 15.1252 12.8334ZM8.25016 11.9167C6.11433 11.9167 1.8335 12.9892 1.8335 15.125V16.5C1.8335 17.0042 2.246 17.4167 2.75016 17.4167H8.25016V15.3542C8.25016 14.575 8.55266 13.2092 10.4227 12.1734C9.62516 12.0084 8.85516 11.9167 8.25016 11.9167Z" fill="#6B7280"/>
</svg>
