<svg width="16" height="19" viewBox="0 0 16 19" fill="none" xmlns="http://www.w3.org/2000/svg">
<path d="M10.875 0.791626H2.16668C1.29584 0.791626 0.583344 1.50413 0.583344 2.37496V12.6666C0.583344 13.102 0.939593 13.4583 1.37501 13.4583C1.81043 13.4583 2.16668 13.102 2.16668 12.6666V3.16663C2.16668 2.73121 2.52293 2.37496 2.95834 2.37496H10.875C11.3104 2.37496 11.6667 2.01871 11.6667 1.58329C11.6667 1.14788 11.3104 0.791626 10.875 0.791626ZM14.0417 3.95829H5.33334C4.46251 3.95829 3.75001 4.67079 3.75001 5.54163V16.625C3.75001 17.4958 4.46251 18.2083 5.33334 18.2083H14.0417C14.9125 18.2083 15.625 17.4958 15.625 16.625V5.54163C15.625 4.67079 14.9125 3.95829 14.0417 3.95829ZM13.25 16.625H6.12501C5.68959 16.625 5.33334 16.2687 5.33334 15.8333V6.33329C5.33334 5.89788 5.68959 5.54163 6.12501 5.54163H13.25C13.6854 5.54163 14.0417 5.89788 14.0417 6.33329V15.8333C14.0417 16.2687 13.6854 16.625 13.25 16.625Z" fill="#6B7280"/>
</svg>
