<svg width="50" height="26" viewBox="0 0 50 26" fill="none" xmlns="http://www.w3.org/2000/svg">
<path d="M37.5 0.5H30C28.625 0.5 27.5 1.625 27.5 3C27.5 4.375 28.625 5.5 30 5.5H37.5C41.625 5.5 45 8.875 45 13C45 17.125 41.625 20.5 37.5 20.5H30C28.625 20.5 27.5 21.625 27.5 23C27.5 24.375 28.625 25.5 30 25.5H37.5C44.4 25.5 50 19.9 50 13C50 6.1 44.4 0.5 37.5 0.5ZM15 13C15 14.375 16.125 15.5 17.5 15.5H32.5C33.875 15.5 35 14.375 35 13C35 11.625 33.875 10.5 32.5 10.5H17.5C16.125 10.5 15 11.625 15 13ZM20 20.5H12.5C8.375 20.5 5 17.125 5 13C5 8.875 8.375 5.5 12.5 5.5H20C21.375 5.5 22.5 4.375 22.5 3C22.5 1.625 21.375 0.5 20 0.5H12.5C5.6 0.5 0 6.1 0 13C0 19.9 5.6 25.5 12.5 25.5H20C21.375 25.5 22.5 24.375 22.5 23C22.5 21.625 21.375 20.5 20 20.5Z" fill="#6B7280"/>
</svg>
