<svg width="16" height="20" viewBox="0 0 16 20" fill="none" xmlns="http://www.w3.org/2000/svg">
<path d="M10.3742 1.37415C10.0258 1.02581 9.55833 0.833313 9.0725 0.833313H2.5C1.49167 0.833313 0.666667 1.65831 0.666667 2.66665V17.3333C0.666667 18.3416 1.4825 19.1666 2.49083 19.1666H13.5C14.5083 19.1666 15.3333 18.3416 15.3333 17.3333V7.09415C15.3333 6.60831 15.1408 6.14081 14.7925 5.80165L10.3742 1.37415ZM10.75 15.5H5.25C4.74583 15.5 4.33333 15.0875 4.33333 14.5833C4.33333 14.0791 4.74583 13.6666 5.25 13.6666H10.75C11.2542 13.6666 11.6667 14.0791 11.6667 14.5833C11.6667 15.0875 11.2542 15.5 10.75 15.5ZM10.75 11.8333H5.25C4.74583 11.8333 4.33333 11.4208 4.33333 10.9166C4.33333 10.4125 4.74583 9.99998 5.25 9.99998H10.75C11.2542 9.99998 11.6667 10.4125 11.6667 10.9166C11.6667 11.4208 11.2542 11.8333 10.75 11.8333ZM8.91667 6.33331V2.20831L13.9583 7.24998H9.83333C9.32917 7.24998 8.91667 6.83748 8.91667 6.33331Z" fill="#6B7280"/>
</svg>
