<svg width="20" height="16" viewBox="0 0 20 16" fill="none" xmlns="http://www.w3.org/2000/svg">
<path d="M18 0H2C0.89 0 0.00999999 0.89 0.00999999 2L0 14C0 15.11 0.89 16 2 16H18C19.11 16 20 15.11 20 14V2C20 0.89 19.11 0 18 0ZM18 13C18 13.55 17.55 14 17 14H3C2.45 14 2 13.55 2 13V3C2 2.45 2.45 2 3 2H17C17.55 2 18 2.45 18 3V13ZM12 6C12.55 6 13 5.55 13 5C13 4.45 12.55 4 12 4H11V3.99C11 3.44 10.55 2.99 10 2.99C9.45 2.99 9 3.44 9 3.99V4H8C7.45 4 7 4.45 7 5V8C7 8.55 7.45 9 8 9H11V10H8C7.45 10 7 10.45 7 11C7 11.55 7.45 12 8 12H9C9 12.55 9.45 13 10 13C10.55 13 11 12.55 11 12H12C12.55 12 13 11.55 13 11V8C13 7.45 12.55 7 12 7H9V6H12Z" fill="#6B7280"/>
</svg>
