<svg width="20" height="14" viewBox="0 0 20 14" fill="none" xmlns="http://www.w3.org/2000/svg">
<path d="M14.125 6.99998C15.39 6.99998 16.4075 5.97331 16.4075 4.70831C16.4075 3.44331 15.39 2.41665 14.125 2.41665C12.86 2.41665 11.8333 3.44331 11.8333 4.70831C11.8333 5.97331 12.86 6.99998 14.125 6.99998ZM7.25 6.08331C8.77167 6.08331 9.99083 4.85498 9.99083 3.33331C9.99083 1.81165 8.77167 0.583313 7.25 0.583313C5.72833 0.583313 4.5 1.81165 4.5 3.33331C4.5 4.85498 5.72833 6.08331 7.25 6.08331ZM14.125 8.83331C12.4475 8.83331 9.08333 9.67665 9.08333 11.3541V12.5C9.08333 13.0041 9.49583 13.4166 10 13.4166H18.25C18.7542 13.4166 19.1667 13.0041 19.1667 12.5V11.3541C19.1667 9.67665 15.8025 8.83331 14.125 8.83331ZM7.25 7.91665C5.11417 7.91665 0.833333 8.98915 0.833333 11.125V12.5C0.833333 13.0041 1.24583 13.4166 1.75 13.4166H7.25V11.3541C7.25 10.575 7.5525 9.20915 9.4225 8.17331C8.625 8.00831 7.855 7.91665 7.25 7.91665Z" fill="#6B7280"/>
</svg>
