<svg width="20" height="18" viewBox="0 0 20 18" fill="none" xmlns="http://www.w3.org/2000/svg">
<path d="M4.95833 17.25H1.75C1.24583 17.25 0.833333 16.8375 0.833333 16.3333V7.16667C0.833333 6.6625 1.24583 6.25 1.75 6.25H4.95833C5.4625 6.25 5.875 6.6625 5.875 7.16667V16.3333C5.875 16.8375 5.4625 17.25 4.95833 17.25ZM11.6042 0.75H8.39583C7.89167 0.75 7.47917 1.1625 7.47917 1.66667V16.3333C7.47917 16.8375 7.89167 17.25 8.39583 17.25H11.6042C12.1083 17.25 12.5208 16.8375 12.5208 16.3333V1.66667C12.5208 1.1625 12.1083 0.75 11.6042 0.75ZM18.25 8.08333H15.0417C14.5375 8.08333 14.125 8.49583 14.125 9V16.3333C14.125 16.8375 14.5375 17.25 15.0417 17.25H18.25C18.7542 17.25 19.1667 16.8375 19.1667 16.3333V9C19.1667 8.49583 18.7542 8.08333 18.25 8.08333Z" fill="#6B7280"/>
</svg>
