<svg width="18" height="18" viewBox="0 0 18 18" fill="none" xmlns="http://www.w3.org/2000/svg">
<path d="M11.4292 2.56497L6.84583 0.960807C6.46083 0.823307 6.03917 0.823307 5.65417 0.95164L1.99667 2.17997C1.25417 2.43664 0.75 3.13331 0.75 3.92164V14.7841C0.75 16.0766 2.0425 16.9566 3.24333 16.4891L5.92917 15.4441C6.13083 15.3616 6.36 15.3616 6.56167 15.435L11.145 17.0391C11.53 17.1766 11.9517 17.1766 12.3367 17.0483L15.9942 15.82C16.7367 15.5725 17.2408 14.8666 17.2408 14.0783V3.21581C17.2408 1.92331 15.9483 1.04331 14.7475 1.51081L12.0617 2.55581C11.86 2.62914 11.64 2.63831 11.4292 2.56497ZM11.75 15.3158L6.25 13.3816V2.68414L11.75 4.61831V15.3158Z" fill="#6B7280"/>
</svg>
