<svg width="18" height="20" viewBox="0 0 18 20" fill="none" xmlns="http://www.w3.org/2000/svg">
<path d="M15.4167 2.75002H11.585C11.2 1.68669 10.1917 0.916687 9 0.916687C7.80833 0.916687 6.8 1.68669 6.415 2.75002H2.58333C1.575 2.75002 0.75 3.57502 0.75 4.58335V17.4167C0.75 18.425 1.575 19.25 2.58333 19.25H15.4167C16.425 19.25 17.25 18.425 17.25 17.4167V4.58335C17.25 3.57502 16.425 2.75002 15.4167 2.75002ZM9 2.75002C9.50417 2.75002 9.91667 3.16252 9.91667 3.66669C9.91667 4.17085 9.50417 4.58335 9 4.58335C8.49583 4.58335 8.08333 4.17085 8.08333 3.66669C8.08333 3.16252 8.49583 2.75002 9 2.75002ZM12.6667 13.75H9V16.5L4.41667 11.9167L9 7.33335V10.0834H12.6667V13.75Z" fill="#6B7280"/>
</svg>
