<svg width="18" height="20" viewBox="0 0 18 20" fill="none" xmlns="http://www.w3.org/2000/svg">
<path d="M15.8108 10.8983C15.8475 10.605 15.875 10.3116 15.875 9.99998C15.875 9.68831 15.8475 9.39498 15.8108 9.10165L17.745 7.58915C17.9192 7.45165 17.965 7.20415 17.855 7.00248L16.0217 3.83081C15.9117 3.62915 15.6642 3.55581 15.4625 3.62915L13.18 4.54581C12.7033 4.17915 12.19 3.87665 11.6308 3.64748L11.2825 1.21831C11.255 0.998313 11.0625 0.833313 10.8333 0.833313H7.16667C6.9375 0.833313 6.745 0.998313 6.7175 1.21831L6.36917 3.64748C5.81 3.87665 5.29667 4.18831 4.82 4.54581L2.5375 3.62915C2.32667 3.54665 2.08833 3.62915 1.97833 3.83081L0.145 7.00248C0.0258332 7.20415 0.0808333 7.45165 0.255 7.58915L2.18917 9.10165C2.1525 9.39498 2.125 9.69748 2.125 9.99998C2.125 10.3025 2.1525 10.605 2.18917 10.8983L0.255 12.4108C0.0808333 12.5483 0.0349999 12.7958 0.145 12.9975L1.97833 16.1691C2.08833 16.3708 2.33583 16.4441 2.5375 16.3708L4.82 15.4541C5.29667 15.8208 5.81 16.1233 6.36917 16.3525L6.7175 18.7816C6.745 19.0016 6.9375 19.1666 7.16667 19.1666H10.8333C11.0625 19.1666 11.255 19.0016 11.2825 18.7816L11.6308 16.3525C12.19 16.1233 12.7033 15.8116 13.18 15.4541L15.4625 16.3708C15.6733 16.4533 15.9117 16.3708 16.0217 16.1691L17.855 12.9975C17.965 12.7958 17.9192 12.5483 17.745 12.4108L15.8108 10.8983ZM9 13.2083C7.23083 13.2083 5.79167 11.7691 5.79167 9.99998C5.79167 8.23081 7.23083 6.79165 9 6.79165C10.7692 6.79165 12.2083 8.23081 12.2083 9.99998C12.2083 11.7691 10.7692 13.2083 9 13.2083Z" fill="#6B7280"/>
</svg>
