<svg width="22" height="16" viewBox="0 0 22 16" fill="none" xmlns="http://www.w3.org/2000/svg">
<path d="M18.3333 4.33335H15.5833V0.666687H2.75C1.74167 0.666687 0.916667 1.49169 0.916667 2.50002V12.5834H2.75C2.75 14.105 3.97833 15.3334 5.5 15.3334C7.02167 15.3334 8.25 14.105 8.25 12.5834H13.75C13.75 14.105 14.9783 15.3334 16.5 15.3334C18.0217 15.3334 19.25 14.105 19.25 12.5834H21.0833V8.00002L18.3333 4.33335ZM5.5 13.9584C4.73917 13.9584 4.125 13.3442 4.125 12.5834C4.125 11.8225 4.73917 11.2084 5.5 11.2084C6.26083 11.2084 6.875 11.8225 6.875 12.5834C6.875 13.3442 6.26083 13.9584 5.5 13.9584ZM17.875 5.70835L19.6717 8.00002H15.5833V5.70835H17.875ZM16.5 13.9584C15.7392 13.9584 15.125 13.3442 15.125 12.5834C15.125 11.8225 15.7392 11.2084 16.5 11.2084C17.2608 11.2084 17.875 11.8225 17.875 12.5834C17.875 13.3442 17.2608 13.9584 16.5 13.9584Z" fill="#6B7280"/>
</svg>
