<svg width="16" height="18" viewBox="0 0 16 18" fill="none" xmlns="http://www.w3.org/2000/svg">
<path fill-rule="evenodd" clip-rule="evenodd" d="M2.5 0.200012C1.91652 0.200012 1.35695 0.431797 0.944365 0.844377C0.531785 1.25696 0.3 1.81654 0.3 2.40001V17.8L4.15 15.6L8 17.8L11.85 15.6L15.7 17.8V2.40001C15.7 1.81654 15.4682 1.25696 15.0556 0.844377C14.6431 0.431797 14.0835 0.200012 13.5 0.200012H2.5ZM5.25 3.50001C4.81239 3.50001 4.39271 3.67385 4.08327 3.98329C3.77384 4.29272 3.6 4.7124 3.6 5.15001C3.6 5.58762 3.77384 6.0073 4.08327 6.31674C4.39271 6.62617 4.81239 6.80001 5.25 6.80001C5.68761 6.80001 6.10729 6.62617 6.41673 6.31674C6.72616 6.0073 6.9 5.58762 6.9 5.15001C6.9 4.7124 6.72616 4.29272 6.41673 3.98329C6.10729 3.67385 5.68761 3.50001 5.25 3.50001ZM12.0777 3.82231C11.8714 3.61609 11.5917 3.50025 11.3 3.50025C11.0083 3.50025 10.7286 3.61609 10.5223 3.82231L3.9223 10.4223C3.81724 10.5238 3.73344 10.6452 3.67579 10.7794C3.61814 10.9136 3.58779 11.0579 3.58652 11.204C3.58526 11.35 3.61309 11.4949 3.6684 11.6301C3.72371 11.7652 3.80538 11.8881 3.90867 11.9913C4.01195 12.0946 4.13476 12.1763 4.26995 12.2316C4.40514 12.2869 4.54998 12.3148 4.69604 12.3135C4.8421 12.3122 4.98644 12.2819 5.12065 12.2242C5.25485 12.1666 5.37623 12.0828 5.4777 11.9777L12.0777 5.37771C12.2839 5.17143 12.3998 4.89169 12.3998 4.60001C12.3998 4.30833 12.2839 4.02859 12.0777 3.82231ZM10.75 9.00001C10.3124 9.00001 9.89271 9.17385 9.58327 9.48328C9.27384 9.79272 9.1 10.2124 9.1 10.65C9.1 11.0876 9.27384 11.5073 9.58327 11.8167C9.89271 12.1262 10.3124 12.3 10.75 12.3C11.1876 12.3 11.6073 12.1262 11.9167 11.8167C12.2262 11.5073 12.4 11.0876 12.4 10.65C12.4 10.2124 12.2262 9.79272 11.9167 9.48328C11.6073 9.17385 11.1876 9.00001 10.75 9.00001Z" fill="#6B7280"/>
</svg>
