<svg width="129" height="18" viewBox="0 0 129 18" fill="none" xmlns="http://www.w3.org/2000/svg">
<path opacity="0.7" d="M23.98 14V3.92H28.145C28.243 3.92 28.369 3.92467 28.523 3.934C28.677 3.93867 28.8193 3.95267 28.95 3.976C29.5333 4.06467 30.014 4.25833 30.392 4.557C30.7747 4.85567 31.057 5.23367 31.239 5.691C31.4257 6.14367 31.519 6.64767 31.519 7.203C31.519 7.75367 31.4257 8.25767 31.239 8.715C31.0523 9.16767 30.7677 9.54333 30.385 9.842C30.007 10.1407 29.5287 10.3343 28.95 10.423C28.8193 10.4417 28.6747 10.4557 28.516 10.465C28.362 10.4743 28.2383 10.479 28.145 10.479H25.667V14H23.98ZM25.667 8.904H28.075C28.1683 8.904 28.2733 8.89933 28.39 8.89C28.5067 8.88067 28.614 8.862 28.712 8.834C28.992 8.764 29.2113 8.64033 29.37 8.463C29.5333 8.28567 29.6477 8.085 29.713 7.861C29.783 7.637 29.818 7.41767 29.818 7.203C29.818 6.98833 29.783 6.769 29.713 6.545C29.6477 6.31633 29.5333 6.11333 29.37 5.936C29.2113 5.75867 28.992 5.635 28.712 5.565C28.614 5.537 28.5067 5.52067 28.39 5.516C28.2733 5.50667 28.1683 5.502 28.075 5.502H25.667V8.904ZM32.9214 14V6.44H34.4124V8.281L34.2304 8.043C34.3237 7.791 34.4474 7.56233 34.6014 7.357C34.7601 7.147 34.9491 6.97433 35.1684 6.839C35.3551 6.713 35.5604 6.615 35.7844 6.545C36.0131 6.47033 36.2464 6.426 36.4844 6.412C36.7224 6.39333 36.9534 6.40267 37.1774 6.44V8.015C36.9534 7.94967 36.6944 7.92867 36.4004 7.952C36.1111 7.97533 35.8497 8.057 35.6164 8.197C35.3831 8.323 35.1917 8.484 35.0424 8.68C34.8977 8.876 34.7904 9.1 34.7204 9.352C34.6504 9.59933 34.6154 9.86767 34.6154 10.157V14H32.9214ZM41.8135 14.21C41.0482 14.21 40.3762 14.0443 39.7975 13.713C39.2188 13.3817 38.7662 12.922 38.4395 12.334C38.1175 11.746 37.9565 11.0693 37.9565 10.304C37.9565 9.478 38.1152 8.76167 38.4325 8.155C38.7498 7.54367 39.1908 7.07 39.7555 6.734C40.3202 6.398 40.9735 6.23 41.7155 6.23C42.4995 6.23 43.1645 6.41433 43.7105 6.783C44.2612 7.147 44.6695 7.66267 44.9355 8.33C45.2015 8.99733 45.3018 9.78367 45.2365 10.689H43.5635V10.073C43.5588 9.25167 43.4142 8.652 43.1295 8.274C42.8448 7.896 42.3968 7.707 41.7855 7.707C41.0948 7.707 40.5815 7.92167 40.2455 8.351C39.9095 8.77567 39.7415 9.39867 39.7415 10.22C39.7415 10.9853 39.9095 11.578 40.2455 11.998C40.5815 12.418 41.0715 12.628 41.7155 12.628C42.1308 12.628 42.4878 12.537 42.7865 12.355C43.0898 12.1683 43.3232 11.9 43.4865 11.55L45.1525 12.054C44.8632 12.7353 44.4152 13.265 43.8085 13.643C43.2065 14.021 42.5415 14.21 41.8135 14.21ZM39.2095 10.689V9.415H44.4105V10.689H39.2095ZM48.5689 14L45.8249 6.44H47.5119L49.4159 11.921L51.3129 6.44H53.0069L50.2629 14H48.5689ZM54.4032 5.292V3.745H56.0902V5.292H54.4032ZM54.4032 14V6.44H56.0902V14H54.4032ZM61.624 14.21C60.8587 14.21 60.1867 14.0443 59.608 13.713C59.0294 13.3817 58.5767 12.922 58.25 12.334C57.928 11.746 57.767 11.0693 57.767 10.304C57.767 9.478 57.9257 8.76167 58.243 8.155C58.5604 7.54367 59.0014 7.07 59.566 6.734C60.1307 6.398 60.784 6.23 61.526 6.23C62.31 6.23 62.975 6.41433 63.521 6.783C64.0717 7.147 64.48 7.66267 64.746 8.33C65.012 8.99733 65.1124 9.78367 65.047 10.689H63.374V10.073C63.3694 9.25167 63.2247 8.652 62.94 8.274C62.6554 7.896 62.2074 7.707 61.596 7.707C60.9054 7.707 60.392 7.92167 60.056 8.351C59.72 8.77567 59.552 9.39867 59.552 10.22C59.552 10.9853 59.72 11.578 60.056 11.998C60.392 12.418 60.882 12.628 61.526 12.628C61.9414 12.628 62.2984 12.537 62.597 12.355C62.9004 12.1683 63.1337 11.9 63.297 11.55L64.963 12.054C64.6737 12.7353 64.2257 13.265 63.619 13.643C63.017 14.021 62.352 14.21 61.624 14.21ZM59.02 10.689V9.415H64.221V10.689H59.02ZM67.9455 14L65.6355 6.426L67.2875 6.44L68.7645 11.291L70.2625 6.44H71.6835L73.1745 11.291L74.6585 6.44H76.3105L74.0005 14H72.6845L70.9695 8.799L69.2615 14H67.9455ZM80.5165 14V3.92H82.2035V14H80.5165ZM89.5293 14V10.36C89.5293 10.122 89.513 9.85833 89.4803 9.569C89.4476 9.27967 89.3706 9.002 89.2493 8.736C89.1326 8.46533 88.9553 8.24367 88.7173 8.071C88.484 7.89833 88.1666 7.812 87.7653 7.812C87.5506 7.812 87.3383 7.847 87.1283 7.917C86.9183 7.987 86.727 8.10833 86.5543 8.281C86.3863 8.449 86.251 8.68233 86.1483 8.981C86.0456 9.275 85.9943 9.653 85.9943 10.115L84.9933 9.688C84.9933 9.044 85.117 8.46067 85.3643 7.938C85.6163 7.41533 85.985 7 86.4703 6.692C86.9556 6.37933 87.553 6.223 88.2623 6.223C88.8223 6.223 89.2843 6.31633 89.6483 6.503C90.0123 6.68967 90.3016 6.92767 90.5163 7.217C90.731 7.50633 90.8896 7.81433 90.9923 8.141C91.095 8.46767 91.1603 8.778 91.1883 9.072C91.221 9.36133 91.2373 9.597 91.2373 9.779V14H89.5293ZM84.2863 14V6.44H85.7913V8.785H85.9943V14H84.2863ZM95.108 14L92.364 6.44H94.051L95.955 11.921L97.852 6.44H99.546L96.802 14H95.108ZM103.868 14.21C103.112 14.21 102.451 14.0397 101.887 13.699C101.322 13.3583 100.883 12.8893 100.571 12.292C100.263 11.69 100.109 10.9993 100.109 10.22C100.109 9.42667 100.267 8.73133 100.585 8.134C100.902 7.53667 101.343 7.07 101.908 6.734C102.472 6.398 103.126 6.23 103.868 6.23C104.628 6.23 105.291 6.40033 105.856 6.741C106.42 7.08167 106.859 7.553 107.172 8.155C107.484 8.75233 107.641 9.44067 107.641 10.22C107.641 11.004 107.482 11.697 107.165 12.299C106.852 12.8963 106.413 13.3653 105.849 13.706C105.284 14.042 104.624 14.21 103.868 14.21ZM103.868 12.628C104.54 12.628 105.039 12.404 105.366 11.956C105.692 11.508 105.856 10.9293 105.856 10.22C105.856 9.48733 105.69 8.904 105.359 8.47C105.027 8.03133 104.53 7.812 103.868 7.812C103.415 7.812 103.042 7.91467 102.748 8.12C102.458 8.32067 102.244 8.603 102.104 8.967C101.964 9.32633 101.894 9.744 101.894 10.22C101.894 10.9527 102.059 11.5383 102.391 11.977C102.727 12.411 103.219 12.628 103.868 12.628ZM109.323 5.292V3.745H111.01V5.292H109.323ZM109.323 14V6.44H111.01V14H109.323ZM116.39 14.21C115.611 14.21 114.946 14.0373 114.395 13.692C113.844 13.342 113.422 12.866 113.128 12.264C112.839 11.662 112.692 10.9807 112.687 10.22C112.692 9.44533 112.843 8.75933 113.142 8.162C113.445 7.56 113.875 7.08867 114.43 6.748C114.985 6.40267 115.646 6.23 116.411 6.23C117.27 6.23 117.995 6.447 118.588 6.881C119.185 7.31033 119.575 7.89833 119.757 8.645L118.077 9.1C117.946 8.694 117.729 8.379 117.426 8.155C117.123 7.92633 116.777 7.812 116.39 7.812C115.951 7.812 115.59 7.917 115.305 8.127C115.02 8.33233 114.81 8.617 114.675 8.981C114.54 9.345 114.472 9.758 114.472 10.22C114.472 10.9387 114.633 11.5197 114.955 11.963C115.277 12.4063 115.755 12.628 116.39 12.628C116.838 12.628 117.19 12.5253 117.447 12.32C117.708 12.1147 117.904 11.8183 118.035 11.431L119.757 11.816C119.524 12.586 119.115 13.1787 118.532 13.594C117.949 14.0047 117.235 14.21 116.39 14.21ZM124.392 14.21C123.626 14.21 122.954 14.0443 122.376 13.713C121.797 13.3817 121.344 12.922 121.018 12.334C120.696 11.746 120.535 11.0693 120.535 10.304C120.535 9.478 120.693 8.76167 121.011 8.155C121.328 7.54367 121.769 7.07 122.334 6.734C122.898 6.398 123.552 6.23 124.294 6.23C125.078 6.23 125.743 6.41433 126.289 6.783C126.839 7.147 127.248 7.66267 127.514 8.33C127.78 8.99733 127.88 9.78367 127.815 10.689H126.142V10.073C126.137 9.25167 125.992 8.652 125.708 8.274C125.423 7.896 124.975 7.707 124.364 7.707C123.673 7.707 123.16 7.92167 122.824 8.351C122.488 8.77567 122.32 9.39867 122.32 10.22C122.32 10.9853 122.488 11.578 122.824 11.998C123.16 12.418 123.65 12.628 124.294 12.628C124.709 12.628 125.066 12.537 125.365 12.355C125.668 12.1683 125.901 11.9 126.065 11.55L127.731 12.054C127.441 12.7353 126.993 13.265 126.387 13.643C125.785 14.021 125.12 14.21 124.392 14.21ZM121.788 10.689V9.415H126.989V10.689H121.788Z" fill="#7E8792"/>
<path opacity="0.7" d="M9.53333 2C5.2 2 1.49933 4.69533 0 8.5C1.49933 12.3047 5.2 15 9.53333 15C13.8667 15 17.5673 12.3047 19.0667 8.5C17.5673 4.69533 13.8667 2 9.53333 2ZM9.53333 12.8333C7.14133 12.8333 5.2 10.892 5.2 8.5C5.2 6.108 7.14133 4.16667 9.53333 4.16667C11.9253 4.16667 13.8667 6.108 13.8667 8.5C13.8667 10.892 11.9253 12.8333 9.53333 12.8333ZM9.53333 5.9C8.09467 5.9 6.93333 7.06133 6.93333 8.5C6.93333 9.93867 8.09467 11.1 9.53333 11.1C10.972 11.1 12.1333 9.93867 12.1333 8.5C12.1333 7.06133 10.972 5.9 9.53333 5.9Z" fill="#7E8792"/>
</svg>
