<svg width="10" height="12" viewBox="0 0 10 12" fill="none" xmlns="http://www.w3.org/2000/svg">
<path d="M0.685714 10.6667C0.685714 11.4 1.30286 12 2.05714 12H7.54286C8.29714 12 8.91429 11.4 8.91429 10.6667V4C8.91429 3.26667 8.29714 2.66667 7.54286 2.66667H2.05714C1.30286 2.66667 0.685714 3.26667 0.685714 4V10.6667ZM8.91429 0.666667H7.2L6.71314 0.193333C6.58971 0.0733333 6.41143 0 6.23314 0H3.36686C3.18857 0 3.01029 0.0733333 2.88686 0.193333L2.4 0.666667H0.685714C0.308571 0.666667 0 0.966667 0 1.33333C0 1.7 0.308571 2 0.685714 2H8.91429C9.29143 2 9.6 1.7 9.6 1.33333C9.6 0.966667 9.29143 0.666667 8.91429 0.666667Z" fill="#5D6975"/>
</svg>
