<svg width="14" height="14" viewBox="0 0 14 14" fill="none" xmlns="http://www.w3.org/2000/svg">
<path d="M0 7C-1.36979e-08 6.08075 0.18106 5.1705 0.532843 4.32122C0.884626 3.47194 1.40024 2.70026 2.05025 2.05025C2.70026 1.40024 3.47194 0.884626 4.32122 0.532843C5.1705 0.18106 6.08075 0 7 0C7.91925 0 8.8295 0.18106 9.67878 0.532843C10.5281 0.884626 11.2997 1.40024 11.9497 2.05025C12.5998 2.70026 13.1154 3.47194 13.4672 4.32122C13.8189 5.1705 14 6.08075 14 7C14 8.85651 13.2625 10.637 11.9497 11.9497C10.637 13.2625 8.85651 14 7 14C5.14348 14 3.36301 13.2625 2.05025 11.9497C0.737498 10.637 2.76642e-08 8.85651 0 7ZM7 3.5C6.84529 3.5 6.69692 3.56146 6.58752 3.67085C6.47812 3.78025 6.41667 3.92862 6.41667 4.08333V6.41667H4.08333C3.92862 6.41667 3.78025 6.47812 3.67085 6.58752C3.56146 6.69692 3.5 6.84529 3.5 7C3.5 7.15471 3.56146 7.30308 3.67085 7.41248C3.78025 7.52188 3.92862 7.58333 4.08333 7.58333H6.41667V9.91667C6.41667 10.0714 6.47812 10.2197 6.58752 10.3291C6.69692 10.4385 6.84529 10.5 7 10.5C7.15471 10.5 7.30308 10.4385 7.41248 10.3291C7.52188 10.2197 7.58333 10.0714 7.58333 9.91667V7.58333H9.91667C10.0714 7.58333 10.2197 7.52188 10.3291 7.41248C10.4385 7.30308 10.5 7.15471 10.5 7C10.5 6.84529 10.4385 6.69692 10.3291 6.58752C10.2197 6.47812 10.0714 6.41667 9.91667 6.41667H7.58333V4.08333C7.58333 3.92862 7.52188 3.78025 7.41248 3.67085C7.30308 3.56146 7.15471 3.5 7 3.5Z" fill="#E71583"/>
</svg>
