<svg width="16" height="16" viewBox="0 0 16 16" fill="none" xmlns="http://www.w3.org/2000/svg">
<path d="M8.22477 15.188C8.68439 15.188 9.05562 14.8168 9.05562 14.3572L9.06151 8.60014L14.8244 8.60014C15.2841 8.60014 15.6553 8.22891 15.6553 7.76929C15.6553 7.30967 15.2841 6.93844 14.8244 6.93844L9.06151 6.93844L9.06152 1.17552C9.06152 0.715898 8.69028 0.344667 8.23067 0.344667C7.77105 0.344667 7.39981 0.715898 7.39981 1.17552L7.39981 6.93844H1.6369C1.17728 6.93844 0.806045 7.30967 0.806045 7.76929C0.806045 8.22891 1.17728 8.60014 1.6369 8.60014H7.39981L7.39981 14.3631C7.39981 14.8109 7.77694 15.188 8.22477 15.188Z" fill="#E71583"/>
</svg>
