<svg width="16" height="16" viewBox="0 0 16 16" fill="none" xmlns="http://www.w3.org/2000/svg">
<path opacity="0.7" d="M15 14.2678L11.0893 10.3571C12.0291 9.22892 12.4977 7.78185 12.3977 6.31693C12.2977 4.85202 11.6368 3.48205 10.5525 2.49202C9.46811 1.50199 8.04382 0.968119 6.57588 1.00147C5.10793 1.03483 3.70936 1.63284 2.6711 2.6711C1.63284 3.70936 1.03483 5.10793 1.00147 6.57588C0.968119 8.04382 1.50199 9.46811 2.49202 10.5525C3.48205 11.6368 4.85202 12.2977 6.31693 12.3977C7.78185 12.4977 9.22892 12.0291 10.3571 11.0893L14.2678 15L15 14.2678ZM2.05418 6.71468C2.05418 5.79292 2.32752 4.89186 2.83962 4.12545C3.35172 3.35903 4.07959 2.76168 4.93118 2.40894C5.78278 2.0562 6.71985 1.96391 7.62389 2.14373C8.52794 2.32356 9.35836 2.76743 10.0101 3.41921C10.6619 4.07099 11.1058 4.90141 11.2856 5.80546C11.4654 6.70951 11.3732 7.64658 11.0204 8.49817C10.6677 9.34976 10.0703 10.0776 9.30391 10.5897C8.53749 11.1018 7.63644 11.3752 6.71468 11.3752C5.47906 11.3738 4.29444 10.8823 3.42072 10.0086C2.54701 9.13492 2.05555 7.9503 2.05418 6.71468Z" fill="#7E8792" stroke="#7E8792"/>
</svg>
